<svg id="Grupo_4036" data-name="Grupo 4036" xmlns="http://www.w3.org/2000/svg" width="206" height="63.784" viewBox="0 0 206 63.784">
  <rect id="Retângulo_1363" data-name="Retângulo 1363" width="206" height="63.784" rx="8.491" fill="#1e2b3c"/>
  <g id="Grupo_4033" data-name="Grupo 4033" transform="translate(18.607 11.263)">
    <path id="Caminho_9241" data-name="Caminho 9241" d="M631.883,123.251a8.96,8.96,0,0,1,4.27-7.522,9.177,9.177,0,0,0-7.232-3.912c-3.042-.319-5.994,1.824-7.541,1.824-1.58,0-3.972-1.791-6.54-1.74a9.637,9.637,0,0,0-8.105,4.944c-3.5,6.067-.891,14.983,2.466,19.89,1.68,2.4,3.643,5.084,6.212,4.988,2.512-.1,3.45-1.6,6.484-1.6,3.007,0,3.889,1.6,6.509,1.54,2.7-.044,4.394-2.413,6.014-4.837a19.776,19.776,0,0,0,2.753-5.6,8.665,8.665,0,0,1-5.29-7.972" transform="translate(-605.071 -102.268)" fill="#fff"/>
    <path id="Caminho_9242" data-name="Caminho 9242" d="M634.118,104.305a8.811,8.811,0,0,0,2.018-6.324,8.974,8.974,0,0,0-5.809,3.007,8.393,8.393,0,0,0-2.075,6.091,7.426,7.426,0,0,0,5.865-2.773" transform="translate(-612.255 -97.981)" fill="#fff"/>
  </g>
  <g id="Grupo_4034" data-name="Grupo 4034" transform="translate(64.42 29.495)">
    <path id="Caminho_9243" data-name="Caminho 9243" d="M688.842,145.391h-3.5l-1.919-6.03h-6.666l-1.828,6.03h-3.409l6.609-20.523H682.2Zm-6-8.559-1.733-5.359q-.278-.818-1.036-3.864h-.061q-.306,1.31-.976,3.864l-1.705,5.359Z" transform="translate(-671.519 -124.562)" fill="#fff"/>
    <path id="Caminho_9244" data-name="Caminho 9244" d="M714.87,140.249a8.409,8.409,0,0,1-2.041,5.968,5.963,5.963,0,0,1-4.535,1.948,4.543,4.543,0,0,1-4.2-2.1h-.058v7.794h-3.291V137.9q0-2.373-.121-4.871h2.892l.183,2.345h.063a5.847,5.847,0,0,1,9.361-.578,8.165,8.165,0,0,1,1.751,5.45m-3.349.121a6.109,6.109,0,0,0-.974-3.562,3.369,3.369,0,0,0-2.861-1.462,3.417,3.417,0,0,0-2.208.807,3.752,3.752,0,0,0-1.294,2.119,4.233,4.233,0,0,0-.151,1v2.468a3.948,3.948,0,0,0,.985,2.723,3.28,3.28,0,0,0,2.574,1.111,3.356,3.356,0,0,0,2.892-1.429,6.291,6.291,0,0,0,1.036-3.777" transform="translate(-680.556 -127.003)" fill="#fff"/>
    <path id="Caminho_9245" data-name="Caminho 9245" d="M739.555,140.249a8.406,8.406,0,0,1-2.041,5.968,5.959,5.959,0,0,1-4.536,1.948,4.538,4.538,0,0,1-4.2-2.1h-.061v7.794H725.43V137.9q0-2.373-.121-4.871h2.89l.184,2.345h.063a5.847,5.847,0,0,1,9.361-.578,8.163,8.163,0,0,1,1.748,5.45m-3.347.121a6.093,6.093,0,0,0-.976-3.562,3.367,3.367,0,0,0-2.861-1.462,3.421,3.421,0,0,0-2.208.807,3.748,3.748,0,0,0-1.291,2.119,4.15,4.15,0,0,0-.154,1v2.468a3.938,3.938,0,0,0,.988,2.723,3.27,3.27,0,0,0,2.574,1.111,3.36,3.36,0,0,0,2.892-1.429,6.324,6.324,0,0,0,1.036-3.777" transform="translate(-688.223 -127.003)" fill="#fff"/>
    <path id="Caminho_9246" data-name="Caminho 9246" d="M767.838,139.5a5.462,5.462,0,0,1-1.824,4.263,8.069,8.069,0,0,1-5.587,1.8,9.812,9.812,0,0,1-5.321-1.277l.763-2.741a9.012,9.012,0,0,0,4.755,1.308,4.5,4.5,0,0,0,2.9-.836,2.743,2.743,0,0,0,1.033-2.242,2.867,2.867,0,0,0-.851-2.1,7.927,7.927,0,0,0-2.835-1.586q-5.39-2.015-5.387-5.887a5.2,5.2,0,0,1,1.887-4.146,7.451,7.451,0,0,1,5.024-1.62,9.967,9.967,0,0,1,4.657.976l-.82,2.679a8.109,8.109,0,0,0-3.93-.943,3.969,3.969,0,0,0-2.708.852,2.444,2.444,0,0,0-.82,1.857,2.5,2.5,0,0,0,.942,2.008,10.61,10.61,0,0,0,2.984,1.586,10.13,10.13,0,0,1,3.9,2.5,5.234,5.234,0,0,1,1.248,3.562" transform="translate(-697.476 -124.424)" fill="#fff"/>
    <path id="Caminho_9247" data-name="Caminho 9247" d="M785.279,133.975h-3.623v7.186q0,2.741,1.92,2.74a5.949,5.949,0,0,0,1.459-.151l.09,2.5a7.406,7.406,0,0,1-2.556.364,3.939,3.939,0,0,1-3.045-1.185,5.835,5.835,0,0,1-1.1-3.991v-7.46h-2.162v-2.468h2.162V128.8l3.227-.976v3.684h3.623Z" transform="translate(-704.047 -125.48)" fill="#fff"/>
    <path id="Caminho_9248" data-name="Caminho 9248" d="M806.526,140.309a8.117,8.117,0,0,1-1.948,5.6,6.959,6.959,0,0,1-5.419,2.252A6.615,6.615,0,0,1,793.968,146a7.862,7.862,0,0,1-1.934-5.447,8.031,8.031,0,0,1,1.995-5.633,6.89,6.89,0,0,1,5.372-2.195,6.765,6.765,0,0,1,5.238,2.162,7.8,7.8,0,0,1,1.888,5.419m-3.411.106a6.658,6.658,0,0,0-.884-3.511,3.244,3.244,0,0,0-2.951-1.771,3.293,3.293,0,0,0-3.014,1.771,6.791,6.791,0,0,0-.88,3.574,6.655,6.655,0,0,0,.88,3.509,3.316,3.316,0,0,0,2.987,1.771,3.279,3.279,0,0,0,2.949-1.8,6.66,6.66,0,0,0,.913-3.542" transform="translate(-708.943 -127.003)" fill="#fff"/>
    <path id="Caminho_9249" data-name="Caminho 9249" d="M824.987,135.924a5.874,5.874,0,0,0-1.034-.09,3.118,3.118,0,0,0-2.681,1.311,4.936,4.936,0,0,0-.82,2.921v7.764h-3.286l.028-10.136q0-2.56-.121-4.66h2.863l.121,2.833h.088a5.066,5.066,0,0,1,1.646-2.345,3.981,3.981,0,0,1,2.377-.793,5.332,5.332,0,0,1,.82.059Z" transform="translate(-716.719 -127.003)" fill="#fff"/>
    <path id="Caminho_9250" data-name="Caminho 9250" d="M843.955,139.717a8.012,8.012,0,0,1-.119,1.493h-9.863a4.3,4.3,0,0,0,1.429,3.351,4.878,4.878,0,0,0,3.228,1.031,10.936,10.936,0,0,0,3.988-.7l.516,2.284a12.372,12.372,0,0,1-4.964.916,7.178,7.178,0,0,1-5.4-2.028,7.486,7.486,0,0,1-1.964-5.435,8.482,8.482,0,0,1,1.829-5.573,6.3,6.3,0,0,1,5.173-2.372,5.518,5.518,0,0,1,4.846,2.372,8.009,8.009,0,0,1,1.3,4.659m-3.135-.853a4.457,4.457,0,0,0-.637-2.526,2.878,2.878,0,0,0-2.622-1.371,3.127,3.127,0,0,0-2.617,1.341,4.864,4.864,0,0,0-.971,2.556Z" transform="translate(-720.983 -126.989)" fill="#fff"/>
  </g>
  <g id="Grupo_4035" data-name="Grupo 4035" transform="translate(66.512 10.515)">
    <path id="Caminho_9251" data-name="Caminho 9251" d="M674.552,99.963h2.457c2.825,0,4.494,1.522,4.494,4.573s-1.668,4.646-4.408,4.646h-2.543Zm2.351,7.893c1.855,0,2.921-1.054,2.921-3.32s-1.066-3.247-2.921-3.247h-.716v6.568Z" transform="translate(-674.552 -97.848)" fill="#fff"/>
    <path id="Caminho_9252" data-name="Caminho 9252" d="M686.856,99.786a1.008,1.008,0,1,1,1,.919A.928.928,0,0,1,686.856,99.786Zm.186,2.131h1.624v6.924h-1.624Z" transform="translate(-678.373 -97.507)" fill="#fff"/>
    <path id="Caminho_9253" data-name="Caminho 9253" d="M691.475,109.343l.755-1.031a3.056,3.056,0,0,0,1.912.772c.756,0,1.111-.356,1.111-.829,0-.581-.749-.84-1.489-1.122-.907-.341-1.945-.863-1.945-2.019,0-1.2.969-2.069,2.52-2.069a3.733,3.733,0,0,1,2.3.829l-.745,1a2.584,2.584,0,0,0-1.516-.6c-.7,0-1.027.333-1.027.767,0,.547.7.756,1.449,1.032.937.35,1.985.8,1.985,2.092,0,1.189-.942,2.148-2.69,2.148A4.329,4.329,0,0,1,691.475,109.343Z" transform="translate(-679.807 -98.805)" fill="#fff"/>
    <path id="Caminho_9254" data-name="Caminho 9254" d="M701.286,103.215h1.331l.124.738h.045a3.346,3.346,0,0,1,2.086-.908c1.731,0,2.723,1.387,2.723,3.524,0,2.368-1.415,3.739-2.955,3.739a2.766,2.766,0,0,1-1.782-.762l.051,1.151v2.181h-1.624Zm4.639,3.371c0-1.382-.45-2.2-1.505-2.2a2.193,2.193,0,0,0-1.511.778v3.225a2.159,2.159,0,0,0,1.386.575C705.221,108.965,705.925,108.154,705.925,106.586Z" transform="translate(-682.854 -98.805)" fill="#fff"/>
    <path id="Caminho_9255" data-name="Caminho 9255" d="M712.151,106.682a3.308,3.308,0,1,1,3.292,3.626A3.355,3.355,0,0,1,712.151,106.682Zm4.917,0c0-1.387-.609-2.312-1.624-2.312s-1.624.925-1.624,2.312.609,2.3,1.624,2.3S717.068,108.069,717.068,106.682Z" transform="translate(-686.228 -98.805)" fill="#fff"/>
    <path id="Caminho_9256" data-name="Caminho 9256" d="M724.031,103.215h1.331l.124.936h.045a3.23,3.23,0,0,1,2.273-1.106c1.482,0,2.13,1,2.13,2.752v4.342H728.31v-4.133c0-1.139-.326-1.568-1.077-1.568a2.178,2.178,0,0,0-1.577.863v4.838h-1.624Z" transform="translate(-689.917 -98.805)" fill="#fff"/>
    <path id="Caminho_9257" data-name="Caminho 9257" d="M735.437,99.354l2.08-2.459,1.116,1.077-2.385,2.183Zm.023,1.951h1.624v6.924H735.46Z" transform="translate(-693.459 -96.895)" fill="#fff"/>
    <path id="Caminho_9258" data-name="Caminho 9258" d="M739.565,103.291h1.646l1.1,3.591c.192.683.394,1.393.586,2.086h.057c.192-.694.394-1.4.586-2.086l1.1-3.591h1.567l-2.351,6.924h-1.878Z" transform="translate(-694.741 -98.881)" fill="#fff"/>
    <path id="Caminho_9259" data-name="Caminho 9259" d="M750.153,106.682a3.371,3.371,0,0,1,3.191-3.637c1.872,0,2.859,1.353,2.859,3.287a4.094,4.094,0,0,1-.071.789h-4.395a1.97,1.97,0,0,0,2.041,1.928,2.952,2.952,0,0,0,1.607-.5l.552,1.009a4.294,4.294,0,0,1-2.373.75A3.343,3.343,0,0,1,750.153,106.682Zm4.646-.665c0-1.065-.474-1.714-1.421-1.714a1.738,1.738,0,0,0-1.657,1.714Z" transform="translate(-698.029 -98.805)" fill="#fff"/>
    <path id="Caminho_9260" data-name="Caminho 9260" d="M761.175,107.067V98.891H762.8v8.26c0,.4.181.542.35.542a.948.948,0,0,0,.254-.028l.2,1.212a2.278,2.278,0,0,1-.857.141C761.6,109.018,761.175,108.273,761.175,107.067Z" transform="translate(-701.452 -97.515)" fill="#fff"/>
    <path id="Caminho_9261" data-name="Caminho 9261" d="M770.8,103.215h1.331l.124.936h.045a3.229,3.229,0,0,1,2.272-1.106c1.483,0,2.13,1,2.13,2.752v4.342h-1.624v-4.133c0-1.139-.326-1.568-1.077-1.568a2.179,2.179,0,0,0-1.578.863v4.838H770.8Z" transform="translate(-704.44 -98.805)" fill="#fff"/>
    <path id="Caminho_9262" data-name="Caminho 9262" d="M781.7,108.277c0-1.482,1.229-2.255,4.071-2.559-.022-.745-.321-1.364-1.258-1.364a3.822,3.822,0,0,0-1.945.682l-.6-1.082a5.4,5.4,0,0,1,2.842-.908c1.731,0,2.582,1.066,2.582,2.994v4.1h-1.33l-.124-.767h-.045a3.349,3.349,0,0,1-2.148.936A1.94,1.94,0,0,1,781.7,108.277Zm4.071.006v-1.556c-1.877.237-2.5.727-2.5,1.427,0,.612.418.879,1,.879A2.181,2.181,0,0,0,785.766,108.283Z" transform="translate(-707.824 -98.805)" fill="#fff"/>
  </g>
</svg>
