<svg xmlns="http://www.w3.org/2000/svg" width="40.136" height="49.896" viewBox="0 0 40.136 49.896">
  <path id="applepay" d="M27.306,18.494c-1.756,2.1-4.557,3.748-7.359,3.511a10.61,10.61,0,0,1,2.627-7.7,10.968,10.968,0,0,1,7.3-3.8A11.279,11.279,0,0,1,27.306,18.494Zm2.532,4.072c-4.055-.237-7.533,2.337-9.451,2.337-1.963,0-4.906-2.216-8.118-2.154A11.977,11.977,0,0,0,2.088,29C-2.29,36.611.951,47.887,5.18,54.08,7.256,57.151,9.738,60.509,13,60.393c3.088-.116,4.312-2.038,8.048-2.038,3.764,0,4.844,2.038,8.118,1.98,3.383-.062,5.512-3.071,7.583-6.139A26.982,26.982,0,0,0,40.14,47.14a11.1,11.1,0,0,1-6.6-10.119,11.353,11.353,0,0,1,5.342-9.5,11.526,11.526,0,0,0-9.044-4.964Z" transform="translate(-0.004 -10.5)" fill="#1e2b3c"/>
</svg>
