<svg xmlns="http://www.w3.org/2000/svg" xmlns:xlink="http://www.w3.org/1999/xlink" width="372" height="142" viewBox="0 0 372 142">
  <defs>
    <clipPath id="clip-path">
      <rect id="Ret칙ngulo_1398" data-name="Ret칙ngulo 1398" width="372" height="142" transform="translate(0 1472)" fill="#fff" stroke="#707070" stroke-width="1"/>
    </clipPath>
  </defs>
  <g id="Grupo_de_m치scara_5" data-name="Grupo de m치scara 5" transform="translate(0 -1472)" clip-path="url(#clip-path)">
    <g id="Grupo_4182" data-name="Grupo 4182" transform="translate(-1662 -2584)" opacity="0.1">
      <ellipse id="Elipse_124" data-name="Elipse 124" cx="4" cy="3.5" rx="4" ry="3.5" transform="translate(1321 4060)" fill="#1e2b3c"/>
      <circle id="Elipse_125" data-name="Elipse 125" cx="3.5" cy="3.5" r="3.5" transform="translate(1352 4060)" fill="#1e2b3c"/>
      <ellipse id="Elipse_126" data-name="Elipse 126" cx="4" cy="3.5" rx="4" ry="3.5" transform="translate(1382 4060)" fill="#1e2b3c"/>
      <circle id="Elipse_127" data-name="Elipse 127" cx="3.5" cy="3.5" r="3.5" transform="translate(1413 4060)" fill="#1e2b3c"/>
      <ellipse id="Elipse_128" data-name="Elipse 128" cx="4" cy="3.5" rx="4" ry="3.5" transform="translate(1443 4060)" fill="#1e2b3c"/>
      <ellipse id="Elipse_129" data-name="Elipse 129" cx="4" cy="3.5" rx="4" ry="3.5" transform="translate(1474 4060)" fill="#1e2b3c"/>
      <ellipse id="Elipse_130" data-name="Elipse 130" cx="4" cy="3.5" rx="4" ry="3.5" transform="translate(1504 4060)" fill="#1e2b3c"/>
      <ellipse id="Elipse_131" data-name="Elipse 131" cx="4" cy="3.5" rx="4" ry="3.5" transform="translate(1535 4060)" fill="#1e2b3c"/>
      <circle id="Elipse_132" data-name="Elipse 132" cx="3.5" cy="3.5" r="3.5" transform="translate(1566 4060)" fill="#1e2b3c"/>
      <ellipse id="Elipse_133" data-name="Elipse 133" cx="4" cy="3.5" rx="4" ry="3.5" transform="translate(1596 4060)" fill="#1e2b3c"/>
      <circle id="Elipse_134" data-name="Elipse 134" cx="3.5" cy="3.5" r="3.5" transform="translate(1627 4060)" fill="#1e2b3c"/>
      <ellipse id="Elipse_135" data-name="Elipse 135" cx="4" cy="3.5" rx="4" ry="3.5" transform="translate(1657 4060)" fill="#1e2b3c"/>
      <ellipse id="Elipse_136" data-name="Elipse 136" cx="4" cy="3.5" rx="4" ry="3.5" transform="translate(1321 4086)" fill="#1e2b3c"/>
      <circle id="Elipse_137" data-name="Elipse 137" cx="3.5" cy="3.5" r="3.5" transform="translate(1352 4086)" fill="#1e2b3c"/>
      <ellipse id="Elipse_138" data-name="Elipse 138" cx="4" cy="3.5" rx="4" ry="3.5" transform="translate(1382 4086)" fill="#1e2b3c"/>
      <circle id="Elipse_139" data-name="Elipse 139" cx="3.5" cy="3.5" r="3.5" transform="translate(1413 4086)" fill="#1e2b3c"/>
      <ellipse id="Elipse_140" data-name="Elipse 140" cx="4" cy="3.5" rx="4" ry="3.5" transform="translate(1443 4086)" fill="#1e2b3c"/>
      <ellipse id="Elipse_141" data-name="Elipse 141" cx="4" cy="3.5" rx="4" ry="3.5" transform="translate(1474 4086)" fill="#1e2b3c"/>
      <ellipse id="Elipse_142" data-name="Elipse 142" cx="4" cy="3.5" rx="4" ry="3.5" transform="translate(1504 4086)" fill="#1e2b3c"/>
      <ellipse id="Elipse_143" data-name="Elipse 143" cx="4" cy="3.5" rx="4" ry="3.5" transform="translate(1535 4086)" fill="#1e2b3c"/>
      <circle id="Elipse_144" data-name="Elipse 144" cx="3.5" cy="3.5" r="3.5" transform="translate(1566 4086)" fill="#1e2b3c"/>
      <ellipse id="Elipse_145" data-name="Elipse 145" cx="4" cy="3.5" rx="4" ry="3.5" transform="translate(1596 4086)" fill="#1e2b3c"/>
      <circle id="Elipse_146" data-name="Elipse 146" cx="3.5" cy="3.5" r="3.5" transform="translate(1627 4086)" fill="#1e2b3c"/>
      <ellipse id="Elipse_147" data-name="Elipse 147" cx="4" cy="3.5" rx="4" ry="3.5" transform="translate(1657 4086)" fill="#1e2b3c"/>
      <circle id="Elipse_148" data-name="Elipse 148" cx="4" cy="4" r="4" transform="translate(1321 4111)" fill="#1e2b3c"/>
      <ellipse id="Elipse_149" data-name="Elipse 149" cx="3.5" cy="4" rx="3.5" ry="4" transform="translate(1352 4111)" fill="#1e2b3c"/>
      <circle id="Elipse_150" data-name="Elipse 150" cx="4" cy="4" r="4" transform="translate(1382 4111)" fill="#1e2b3c"/>
      <ellipse id="Elipse_151" data-name="Elipse 151" cx="3.5" cy="4" rx="3.5" ry="4" transform="translate(1413 4111)" fill="#1e2b3c"/>
      <circle id="Elipse_152" data-name="Elipse 152" cx="4" cy="4" r="4" transform="translate(1443 4111)" fill="#1e2b3c"/>
      <circle id="Elipse_153" data-name="Elipse 153" cx="4" cy="4" r="4" transform="translate(1474 4111)" fill="#1e2b3c"/>
      <circle id="Elipse_154" data-name="Elipse 154" cx="4" cy="4" r="4" transform="translate(1504 4111)" fill="#1e2b3c"/>
      <circle id="Elipse_155" data-name="Elipse 155" cx="4" cy="4" r="4" transform="translate(1535 4111)" fill="#1e2b3c"/>
      <ellipse id="Elipse_156" data-name="Elipse 156" cx="3.5" cy="4" rx="3.5" ry="4" transform="translate(1566 4111)" fill="#1e2b3c"/>
      <circle id="Elipse_157" data-name="Elipse 157" cx="4" cy="4" r="4" transform="translate(1596 4111)" fill="#1e2b3c"/>
      <ellipse id="Elipse_158" data-name="Elipse 158" cx="3.5" cy="4" rx="3.5" ry="4" transform="translate(1627 4111)" fill="#1e2b3c"/>
      <circle id="Elipse_159" data-name="Elipse 159" cx="4" cy="4" r="4" transform="translate(1657 4111)" fill="#1e2b3c"/>
      <circle id="Elipse_160" data-name="Elipse 160" cx="4" cy="4" r="4" transform="translate(1321 4137)" fill="#1e2b3c"/>
      <ellipse id="Elipse_161" data-name="Elipse 161" cx="3.5" cy="4" rx="3.5" ry="4" transform="translate(1352 4137)" fill="#1e2b3c"/>
      <circle id="Elipse_162" data-name="Elipse 162" cx="4" cy="4" r="4" transform="translate(1382 4137)" fill="#1e2b3c"/>
      <ellipse id="Elipse_163" data-name="Elipse 163" cx="3.5" cy="4" rx="3.5" ry="4" transform="translate(1413 4137)" fill="#1e2b3c"/>
      <circle id="Elipse_164" data-name="Elipse 164" cx="4" cy="4" r="4" transform="translate(1443 4137)" fill="#1e2b3c"/>
      <circle id="Elipse_165" data-name="Elipse 165" cx="4" cy="4" r="4" transform="translate(1474 4137)" fill="#1e2b3c"/>
      <circle id="Elipse_166" data-name="Elipse 166" cx="4" cy="4" r="4" transform="translate(1504 4137)" fill="#1e2b3c"/>
      <circle id="Elipse_167" data-name="Elipse 167" cx="4" cy="4" r="4" transform="translate(1535 4137)" fill="#1e2b3c"/>
      <ellipse id="Elipse_168" data-name="Elipse 168" cx="3.5" cy="4" rx="3.5" ry="4" transform="translate(1566 4137)" fill="#1e2b3c"/>
      <circle id="Elipse_169" data-name="Elipse 169" cx="4" cy="4" r="4" transform="translate(1596 4137)" fill="#1e2b3c"/>
      <ellipse id="Elipse_170" data-name="Elipse 170" cx="3.5" cy="4" rx="3.5" ry="4" transform="translate(1627 4137)" fill="#1e2b3c"/>
      <circle id="Elipse_171" data-name="Elipse 171" cx="4" cy="4" r="4" transform="translate(1657 4137)" fill="#1e2b3c"/>
      <ellipse id="Elipse_172" data-name="Elipse 172" cx="4" cy="3.5" rx="4" ry="3.5" transform="translate(1321 4163)" fill="#1e2b3c"/>
      <circle id="Elipse_173" data-name="Elipse 173" cx="3.5" cy="3.5" r="3.5" transform="translate(1352 4163)" fill="#1e2b3c"/>
      <ellipse id="Elipse_174" data-name="Elipse 174" cx="4" cy="3.5" rx="4" ry="3.5" transform="translate(1382 4163)" fill="#1e2b3c"/>
      <circle id="Elipse_175" data-name="Elipse 175" cx="3.5" cy="3.5" r="3.5" transform="translate(1413 4163)" fill="#1e2b3c"/>
      <ellipse id="Elipse_176" data-name="Elipse 176" cx="4" cy="3.5" rx="4" ry="3.5" transform="translate(1443 4163)" fill="#1e2b3c"/>
      <ellipse id="Elipse_177" data-name="Elipse 177" cx="4" cy="3.5" rx="4" ry="3.5" transform="translate(1474 4163)" fill="#1e2b3c"/>
      <ellipse id="Elipse_178" data-name="Elipse 178" cx="4" cy="3.5" rx="4" ry="3.5" transform="translate(1504 4163)" fill="#1e2b3c"/>
      <ellipse id="Elipse_179" data-name="Elipse 179" cx="4" cy="3.5" rx="4" ry="3.5" transform="translate(1535 4163)" fill="#1e2b3c"/>
      <circle id="Elipse_180" data-name="Elipse 180" cx="3.5" cy="3.5" r="3.5" transform="translate(1566 4163)" fill="#1e2b3c"/>
      <ellipse id="Elipse_181" data-name="Elipse 181" cx="4" cy="3.5" rx="4" ry="3.5" transform="translate(1596 4163)" fill="#1e2b3c"/>
      <circle id="Elipse_182" data-name="Elipse 182" cx="3.5" cy="3.5" r="3.5" transform="translate(1627 4163)" fill="#1e2b3c"/>
      <ellipse id="Elipse_183" data-name="Elipse 183" cx="4" cy="3.5" rx="4" ry="3.5" transform="translate(1657 4163)" fill="#1e2b3c"/>
      <ellipse id="Elipse_184" data-name="Elipse 184" cx="4" cy="3.5" rx="4" ry="3.5" transform="translate(1321 4189)" fill="#1e2b3c"/>
      <circle id="Elipse_185" data-name="Elipse 185" cx="3.5" cy="3.5" r="3.5" transform="translate(1352 4189)" fill="#1e2b3c"/>
      <ellipse id="Elipse_186" data-name="Elipse 186" cx="4" cy="3.5" rx="4" ry="3.5" transform="translate(1382 4189)" fill="#1e2b3c"/>
      <circle id="Elipse_187" data-name="Elipse 187" cx="3.5" cy="3.5" r="3.5" transform="translate(1413 4189)" fill="#1e2b3c"/>
      <ellipse id="Elipse_188" data-name="Elipse 188" cx="4" cy="3.5" rx="4" ry="3.5" transform="translate(1443 4189)" fill="#1e2b3c"/>
      <ellipse id="Elipse_189" data-name="Elipse 189" cx="4" cy="3.5" rx="4" ry="3.5" transform="translate(1474 4189)" fill="#1e2b3c"/>
      <ellipse id="Elipse_190" data-name="Elipse 190" cx="4" cy="3.5" rx="4" ry="3.5" transform="translate(1504 4189)" fill="#1e2b3c"/>
      <ellipse id="Elipse_191" data-name="Elipse 191" cx="4" cy="3.5" rx="4" ry="3.5" transform="translate(1535 4189)" fill="#1e2b3c"/>
      <circle id="Elipse_192" data-name="Elipse 192" cx="3.5" cy="3.5" r="3.5" transform="translate(1566 4189)" fill="#1e2b3c"/>
      <ellipse id="Elipse_193" data-name="Elipse 193" cx="4" cy="3.5" rx="4" ry="3.5" transform="translate(1596 4189)" fill="#1e2b3c"/>
      <circle id="Elipse_194" data-name="Elipse 194" cx="3.5" cy="3.5" r="3.5" transform="translate(1627 4189)" fill="#1e2b3c"/>
      <ellipse id="Elipse_195" data-name="Elipse 195" cx="4" cy="3.5" rx="4" ry="3.5" transform="translate(1657 4189)" fill="#1e2b3c"/>
      <ellipse id="Elipse_124-2" data-name="Elipse 124" cx="4" cy="3.5" rx="4" ry="3.5" transform="translate(1685 4060)" fill="#1e2b3c"/>
      <circle id="Elipse_125-2" data-name="Elipse 125" cx="3.5" cy="3.5" r="3.5" transform="translate(1716 4060)" fill="#1e2b3c"/>
      <ellipse id="Elipse_126-2" data-name="Elipse 126" cx="4" cy="3.5" rx="4" ry="3.5" transform="translate(1746 4060)" fill="#1e2b3c"/>
      <circle id="Elipse_127-2" data-name="Elipse 127" cx="3.5" cy="3.5" r="3.5" transform="translate(1777 4060)" fill="#1e2b3c"/>
      <ellipse id="Elipse_128-2" data-name="Elipse 128" cx="4" cy="3.5" rx="4" ry="3.5" transform="translate(1807 4060)" fill="#1e2b3c"/>
      <ellipse id="Elipse_129-2" data-name="Elipse 129" cx="4" cy="3.5" rx="4" ry="3.5" transform="translate(1838 4060)" fill="#1e2b3c"/>
      <ellipse id="Elipse_130-2" data-name="Elipse 130" cx="4" cy="3.5" rx="4" ry="3.5" transform="translate(1868 4060)" fill="#1e2b3c"/>
      <ellipse id="Elipse_131-2" data-name="Elipse 131" cx="4" cy="3.5" rx="4" ry="3.5" transform="translate(1899 4060)" fill="#1e2b3c"/>
      <ellipse id="Elipse_136-2" data-name="Elipse 136" cx="4" cy="3.5" rx="4" ry="3.5" transform="translate(1685 4086)" fill="#1e2b3c"/>
      <circle id="Elipse_137-2" data-name="Elipse 137" cx="3.5" cy="3.5" r="3.5" transform="translate(1716 4086)" fill="#1e2b3c"/>
      <ellipse id="Elipse_138-2" data-name="Elipse 138" cx="4" cy="3.5" rx="4" ry="3.5" transform="translate(1746 4086)" fill="#1e2b3c"/>
      <circle id="Elipse_139-2" data-name="Elipse 139" cx="3.5" cy="3.5" r="3.5" transform="translate(1777 4086)" fill="#1e2b3c"/>
      <ellipse id="Elipse_140-2" data-name="Elipse 140" cx="4" cy="3.5" rx="4" ry="3.5" transform="translate(1807 4086)" fill="#1e2b3c"/>
      <ellipse id="Elipse_141-2" data-name="Elipse 141" cx="4" cy="3.5" rx="4" ry="3.5" transform="translate(1838 4086)" fill="#1e2b3c"/>
      <ellipse id="Elipse_142-2" data-name="Elipse 142" cx="4" cy="3.5" rx="4" ry="3.5" transform="translate(1868 4086)" fill="#1e2b3c"/>
      <ellipse id="Elipse_143-2" data-name="Elipse 143" cx="4" cy="3.5" rx="4" ry="3.5" transform="translate(1899 4086)" fill="#1e2b3c"/>
      <circle id="Elipse_148-2" data-name="Elipse 148" cx="4" cy="4" r="4" transform="translate(1685 4111)" fill="#1e2b3c"/>
      <ellipse id="Elipse_149-2" data-name="Elipse 149" cx="3.5" cy="4" rx="3.5" ry="4" transform="translate(1716 4111)" fill="#1e2b3c"/>
      <circle id="Elipse_150-2" data-name="Elipse 150" cx="4" cy="4" r="4" transform="translate(1746 4111)" fill="#1e2b3c"/>
      <ellipse id="Elipse_151-2" data-name="Elipse 151" cx="3.5" cy="4" rx="3.5" ry="4" transform="translate(1777 4111)" fill="#1e2b3c"/>
      <circle id="Elipse_152-2" data-name="Elipse 152" cx="4" cy="4" r="4" transform="translate(1807 4111)" fill="#1e2b3c"/>
      <circle id="Elipse_153-2" data-name="Elipse 153" cx="4" cy="4" r="4" transform="translate(1838 4111)" fill="#1e2b3c"/>
      <circle id="Elipse_154-2" data-name="Elipse 154" cx="4" cy="4" r="4" transform="translate(1868 4111)" fill="#1e2b3c"/>
      <circle id="Elipse_155-2" data-name="Elipse 155" cx="4" cy="4" r="4" transform="translate(1899 4111)" fill="#1e2b3c"/>
      <circle id="Elipse_160-2" data-name="Elipse 160" cx="4" cy="4" r="4" transform="translate(1685 4137)" fill="#1e2b3c"/>
      <ellipse id="Elipse_161-2" data-name="Elipse 161" cx="3.5" cy="4" rx="3.5" ry="4" transform="translate(1716 4137)" fill="#1e2b3c"/>
      <circle id="Elipse_162-2" data-name="Elipse 162" cx="4" cy="4" r="4" transform="translate(1746 4137)" fill="#1e2b3c"/>
      <ellipse id="Elipse_163-2" data-name="Elipse 163" cx="3.5" cy="4" rx="3.5" ry="4" transform="translate(1777 4137)" fill="#1e2b3c"/>
      <circle id="Elipse_164-2" data-name="Elipse 164" cx="4" cy="4" r="4" transform="translate(1807 4137)" fill="#1e2b3c"/>
      <circle id="Elipse_165-2" data-name="Elipse 165" cx="4" cy="4" r="4" transform="translate(1838 4137)" fill="#1e2b3c"/>
      <circle id="Elipse_166-2" data-name="Elipse 166" cx="4" cy="4" r="4" transform="translate(1868 4137)" fill="#1e2b3c"/>
      <circle id="Elipse_167-2" data-name="Elipse 167" cx="4" cy="4" r="4" transform="translate(1899 4137)" fill="#1e2b3c"/>
      <ellipse id="Elipse_172-2" data-name="Elipse 172" cx="4" cy="3.5" rx="4" ry="3.5" transform="translate(1685 4163)" fill="#1e2b3c"/>
      <circle id="Elipse_173-2" data-name="Elipse 173" cx="3.5" cy="3.5" r="3.5" transform="translate(1716 4163)" fill="#1e2b3c"/>
      <ellipse id="Elipse_174-2" data-name="Elipse 174" cx="4" cy="3.5" rx="4" ry="3.5" transform="translate(1746 4163)" fill="#1e2b3c"/>
      <circle id="Elipse_175-2" data-name="Elipse 175" cx="3.5" cy="3.5" r="3.5" transform="translate(1777 4163)" fill="#1e2b3c"/>
      <ellipse id="Elipse_176-2" data-name="Elipse 176" cx="4" cy="3.5" rx="4" ry="3.5" transform="translate(1807 4163)" fill="#1e2b3c"/>
      <ellipse id="Elipse_177-2" data-name="Elipse 177" cx="4" cy="3.5" rx="4" ry="3.5" transform="translate(1838 4163)" fill="#1e2b3c"/>
      <ellipse id="Elipse_178-2" data-name="Elipse 178" cx="4" cy="3.5" rx="4" ry="3.5" transform="translate(1868 4163)" fill="#1e2b3c"/>
      <ellipse id="Elipse_179-2" data-name="Elipse 179" cx="4" cy="3.5" rx="4" ry="3.5" transform="translate(1899 4163)" fill="#1e2b3c"/>
      <ellipse id="Elipse_184-2" data-name="Elipse 184" cx="4" cy="3.5" rx="4" ry="3.5" transform="translate(1685 4189)" fill="#1e2b3c"/>
      <circle id="Elipse_185-2" data-name="Elipse 185" cx="3.5" cy="3.5" r="3.5" transform="translate(1716 4189)" fill="#1e2b3c"/>
      <ellipse id="Elipse_186-2" data-name="Elipse 186" cx="4" cy="3.5" rx="4" ry="3.5" transform="translate(1746 4189)" fill="#1e2b3c"/>
      <circle id="Elipse_187-2" data-name="Elipse 187" cx="3.5" cy="3.5" r="3.5" transform="translate(1777 4189)" fill="#1e2b3c"/>
      <ellipse id="Elipse_188-2" data-name="Elipse 188" cx="4" cy="3.5" rx="4" ry="3.5" transform="translate(1807 4189)" fill="#1e2b3c"/>
      <ellipse id="Elipse_189-2" data-name="Elipse 189" cx="4" cy="3.5" rx="4" ry="3.5" transform="translate(1838 4189)" fill="#1e2b3c"/>
      <ellipse id="Elipse_190-2" data-name="Elipse 190" cx="4" cy="3.5" rx="4" ry="3.5" transform="translate(1868 4189)" fill="#1e2b3c"/>
      <ellipse id="Elipse_191-2" data-name="Elipse 191" cx="4" cy="3.5" rx="4" ry="3.5" transform="translate(1899 4189)" fill="#1e2b3c"/>
      <circle id="Elipse_132-2" data-name="Elipse 132" cx="3.5" cy="3.5" r="3.5" transform="translate(1930 4060)" fill="#1e2b3c"/>
      <ellipse id="Elipse_133-2" data-name="Elipse 133" cx="4" cy="3.5" rx="4" ry="3.5" transform="translate(1960 4060)" fill="#1e2b3c"/>
      <circle id="Elipse_134-2" data-name="Elipse 134" cx="3.5" cy="3.5" r="3.5" transform="translate(1991 4060)" fill="#1e2b3c"/>
      <ellipse id="Elipse_135-2" data-name="Elipse 135" cx="4" cy="3.5" rx="4" ry="3.5" transform="translate(2021 4060)" fill="#1e2b3c"/>
      <circle id="Elipse_144-2" data-name="Elipse 144" cx="3.5" cy="3.5" r="3.5" transform="translate(1930 4086)" fill="#1e2b3c"/>
      <ellipse id="Elipse_145-2" data-name="Elipse 145" cx="4" cy="3.5" rx="4" ry="3.5" transform="translate(1960 4086)" fill="#1e2b3c"/>
      <circle id="Elipse_146-2" data-name="Elipse 146" cx="3.5" cy="3.5" r="3.5" transform="translate(1991 4086)" fill="#1e2b3c"/>
      <ellipse id="Elipse_147-2" data-name="Elipse 147" cx="4" cy="3.5" rx="4" ry="3.5" transform="translate(2021 4086)" fill="#1e2b3c"/>
      <ellipse id="Elipse_156-2" data-name="Elipse 156" cx="3.5" cy="4" rx="3.5" ry="4" transform="translate(1930 4111)" fill="#1e2b3c"/>
      <circle id="Elipse_157-2" data-name="Elipse 157" cx="4" cy="4" r="4" transform="translate(1960 4111)" fill="#1e2b3c"/>
      <ellipse id="Elipse_158-2" data-name="Elipse 158" cx="3.5" cy="4" rx="3.5" ry="4" transform="translate(1991 4111)" fill="#1e2b3c"/>
      <circle id="Elipse_159-2" data-name="Elipse 159" cx="4" cy="4" r="4" transform="translate(2021 4111)" fill="#1e2b3c"/>
      <ellipse id="Elipse_168-2" data-name="Elipse 168" cx="3.5" cy="4" rx="3.5" ry="4" transform="translate(1930 4137)" fill="#1e2b3c"/>
      <circle id="Elipse_169-2" data-name="Elipse 169" cx="4" cy="4" r="4" transform="translate(1960 4137)" fill="#1e2b3c"/>
      <ellipse id="Elipse_170-2" data-name="Elipse 170" cx="3.5" cy="4" rx="3.5" ry="4" transform="translate(1991 4137)" fill="#1e2b3c"/>
      <circle id="Elipse_171-2" data-name="Elipse 171" cx="4" cy="4" r="4" transform="translate(2021 4137)" fill="#1e2b3c"/>
      <circle id="Elipse_180-2" data-name="Elipse 180" cx="3.5" cy="3.5" r="3.5" transform="translate(1930 4163)" fill="#1e2b3c"/>
      <ellipse id="Elipse_181-2" data-name="Elipse 181" cx="4" cy="3.5" rx="4" ry="3.5" transform="translate(1960 4163)" fill="#1e2b3c"/>
      <circle id="Elipse_182-2" data-name="Elipse 182" cx="3.5" cy="3.5" r="3.5" transform="translate(1991 4163)" fill="#1e2b3c"/>
      <ellipse id="Elipse_183-2" data-name="Elipse 183" cx="4" cy="3.5" rx="4" ry="3.5" transform="translate(2021 4163)" fill="#1e2b3c"/>
      <circle id="Elipse_192-2" data-name="Elipse 192" cx="3.5" cy="3.5" r="3.5" transform="translate(1930 4189)" fill="#1e2b3c"/>
      <ellipse id="Elipse_193-2" data-name="Elipse 193" cx="4" cy="3.5" rx="4" ry="3.5" transform="translate(1960 4189)" fill="#1e2b3c"/>
      <circle id="Elipse_194-2" data-name="Elipse 194" cx="3.5" cy="3.5" r="3.5" transform="translate(1991 4189)" fill="#1e2b3c"/>
      <ellipse id="Elipse_195-2" data-name="Elipse 195" cx="4" cy="3.5" rx="4" ry="3.5" transform="translate(2021 4189)" fill="#1e2b3c"/>
    </g>
  </g>
</svg>
