<svg xmlns="http://www.w3.org/2000/svg" width="483" height="92" viewBox="0 0 483 92">
  <g id="Grupo_4200" data-name="Grupo 4200" transform="translate(1804 4152.311) rotate(180)" opacity="0.1">
    <circle id="Elipse_124" data-name="Elipse 124" cx="2.5" cy="2.5" r="2.5" transform="translate(1321 4060.311)" fill="#1e2b3c"/>
    <ellipse id="Elipse_125" data-name="Elipse 125" cx="2" cy="2.5" rx="2" ry="2.5" transform="translate(1343 4060.311)" fill="#1e2b3c"/>
    <circle id="Elipse_126" data-name="Elipse 126" cx="2.5" cy="2.5" r="2.5" transform="translate(1363 4060.311)" fill="#1e2b3c"/>
    <circle id="Elipse_127" data-name="Elipse 127" cx="2.5" cy="2.5" r="2.5" transform="translate(1384 4060.311)" fill="#1e2b3c"/>
    <circle id="Elipse_128" data-name="Elipse 128" cx="2.5" cy="2.5" r="2.5" transform="translate(1404 4060.311)" fill="#1e2b3c"/>
    <ellipse id="Elipse_129" data-name="Elipse 129" cx="3" cy="2.5" rx="3" ry="2.5" transform="translate(1426 4060.311)" fill="#1e2b3c"/>
    <ellipse id="Elipse_130" data-name="Elipse 130" cx="3.5" cy="2.5" rx="3.5" ry="2.5" transform="translate(1446 4060.311)" fill="#1e2b3c"/>
    <circle id="Elipse_131" data-name="Elipse 131" cx="2.5" cy="2.5" r="2.5" transform="translate(1467 4060.311)" fill="#1e2b3c"/>
    <ellipse id="Elipse_132" data-name="Elipse 132" cx="2" cy="2.5" rx="2" ry="2.5" transform="translate(1489 4060.311)" fill="#1e2b3c"/>
    <circle id="Elipse_133" data-name="Elipse 133" cx="2.5" cy="2.5" r="2.5" transform="translate(1509 4060.311)" fill="#1e2b3c"/>
    <ellipse id="Elipse_134" data-name="Elipse 134" cx="3" cy="2.5" rx="3" ry="2.5" transform="translate(1530 4060.311)" fill="#1e2b3c"/>
    <circle id="Elipse_135" data-name="Elipse 135" cx="2.5" cy="2.5" r="2.5" transform="translate(1550 4060.311)" fill="#1e2b3c"/>
    <circle id="Elipse_136" data-name="Elipse 136" cx="2.5" cy="2.5" r="2.5" transform="translate(1321 4077.311)" fill="#1e2b3c"/>
    <ellipse id="Elipse_137" data-name="Elipse 137" cx="2" cy="2.5" rx="2" ry="2.5" transform="translate(1343 4077.311)" fill="#1e2b3c"/>
    <circle id="Elipse_138" data-name="Elipse 138" cx="2.5" cy="2.5" r="2.5" transform="translate(1363 4077.311)" fill="#1e2b3c"/>
    <circle id="Elipse_139" data-name="Elipse 139" cx="2.5" cy="2.5" r="2.5" transform="translate(1384 4077.311)" fill="#1e2b3c"/>
    <circle id="Elipse_140" data-name="Elipse 140" cx="2.5" cy="2.5" r="2.5" transform="translate(1404 4077.311)" fill="#1e2b3c"/>
    <ellipse id="Elipse_141" data-name="Elipse 141" cx="3" cy="2.5" rx="3" ry="2.5" transform="translate(1426 4077.311)" fill="#1e2b3c"/>
    <ellipse id="Elipse_142" data-name="Elipse 142" cx="3.5" cy="2.5" rx="3.5" ry="2.5" transform="translate(1446 4077.311)" fill="#1e2b3c"/>
    <circle id="Elipse_143" data-name="Elipse 143" cx="2.5" cy="2.5" r="2.5" transform="translate(1467 4077.311)" fill="#1e2b3c"/>
    <ellipse id="Elipse_144" data-name="Elipse 144" cx="2" cy="2.5" rx="2" ry="2.5" transform="translate(1489 4077.311)" fill="#1e2b3c"/>
    <circle id="Elipse_145" data-name="Elipse 145" cx="2.5" cy="2.5" r="2.5" transform="translate(1509 4077.311)" fill="#1e2b3c"/>
    <ellipse id="Elipse_146" data-name="Elipse 146" cx="3" cy="2.5" rx="3" ry="2.5" transform="translate(1530 4077.311)" fill="#1e2b3c"/>
    <circle id="Elipse_147" data-name="Elipse 147" cx="2.5" cy="2.5" r="2.5" transform="translate(1550 4077.311)" fill="#1e2b3c"/>
    <circle id="Elipse_148" data-name="Elipse 148" cx="2.5" cy="2.5" r="2.5" transform="translate(1321 4094.311)" fill="#1e2b3c"/>
    <ellipse id="Elipse_149" data-name="Elipse 149" cx="2" cy="2.5" rx="2" ry="2.5" transform="translate(1343 4094.311)" fill="#1e2b3c"/>
    <circle id="Elipse_150" data-name="Elipse 150" cx="2.5" cy="2.5" r="2.5" transform="translate(1363 4094.311)" fill="#1e2b3c"/>
    <circle id="Elipse_151" data-name="Elipse 151" cx="2.5" cy="2.5" r="2.5" transform="translate(1384 4094.311)" fill="#1e2b3c"/>
    <circle id="Elipse_152" data-name="Elipse 152" cx="2.5" cy="2.5" r="2.5" transform="translate(1404 4094.311)" fill="#1e2b3c"/>
    <ellipse id="Elipse_153" data-name="Elipse 153" cx="3" cy="2.5" rx="3" ry="2.5" transform="translate(1426 4094.311)" fill="#1e2b3c"/>
    <ellipse id="Elipse_154" data-name="Elipse 154" cx="3.5" cy="2.5" rx="3.5" ry="2.5" transform="translate(1446 4094.311)" fill="#1e2b3c"/>
    <circle id="Elipse_155" data-name="Elipse 155" cx="2.5" cy="2.5" r="2.5" transform="translate(1467 4094.311)" fill="#1e2b3c"/>
    <ellipse id="Elipse_156" data-name="Elipse 156" cx="2" cy="2.5" rx="2" ry="2.5" transform="translate(1489 4094.311)" fill="#1e2b3c"/>
    <circle id="Elipse_157" data-name="Elipse 157" cx="2.5" cy="2.5" r="2.5" transform="translate(1509 4094.311)" fill="#1e2b3c"/>
    <ellipse id="Elipse_158" data-name="Elipse 158" cx="3" cy="2.5" rx="3" ry="2.5" transform="translate(1530 4094.311)" fill="#1e2b3c"/>
    <circle id="Elipse_159" data-name="Elipse 159" cx="2.5" cy="2.5" r="2.5" transform="translate(1550 4094.311)" fill="#1e2b3c"/>
    <ellipse id="Elipse_160" data-name="Elipse 160" cx="2.5" cy="3" rx="2.5" ry="3" transform="translate(1321 4111.311)" fill="#1e2b3c"/>
    <ellipse id="Elipse_161" data-name="Elipse 161" cx="2" cy="3" rx="2" ry="3" transform="translate(1343 4111.311)" fill="#1e2b3c"/>
    <ellipse id="Elipse_162" data-name="Elipse 162" cx="2.5" cy="3" rx="2.5" ry="3" transform="translate(1363 4111.311)" fill="#1e2b3c"/>
    <ellipse id="Elipse_163" data-name="Elipse 163" cx="2.5" cy="3" rx="2.5" ry="3" transform="translate(1384 4111.311)" fill="#1e2b3c"/>
    <ellipse id="Elipse_164" data-name="Elipse 164" cx="2.5" cy="3" rx="2.5" ry="3" transform="translate(1404 4111.311)" fill="#1e2b3c"/>
    <circle id="Elipse_165" data-name="Elipse 165" cx="3" cy="3" r="3" transform="translate(1426 4111.311)" fill="#1e2b3c"/>
    <ellipse id="Elipse_166" data-name="Elipse 166" cx="3.5" cy="3" rx="3.5" ry="3" transform="translate(1446 4111.311)" fill="#1e2b3c"/>
    <ellipse id="Elipse_167" data-name="Elipse 167" cx="2.5" cy="3" rx="2.5" ry="3" transform="translate(1467 4111.311)" fill="#1e2b3c"/>
    <ellipse id="Elipse_168" data-name="Elipse 168" cx="2" cy="3" rx="2" ry="3" transform="translate(1489 4111.311)" fill="#1e2b3c"/>
    <ellipse id="Elipse_169" data-name="Elipse 169" cx="2.5" cy="3" rx="2.5" ry="3" transform="translate(1509 4111.311)" fill="#1e2b3c"/>
    <circle id="Elipse_170" data-name="Elipse 170" cx="3" cy="3" r="3" transform="translate(1530 4111.311)" fill="#1e2b3c"/>
    <ellipse id="Elipse_171" data-name="Elipse 171" cx="2.5" cy="3" rx="2.5" ry="3" transform="translate(1550 4111.311)" fill="#1e2b3c"/>
    <circle id="Elipse_172" data-name="Elipse 172" cx="2.5" cy="2.5" r="2.5" transform="translate(1321 4130.311)" fill="#1e2b3c"/>
    <ellipse id="Elipse_173" data-name="Elipse 173" cx="2" cy="2.5" rx="2" ry="2.5" transform="translate(1343 4130.311)" fill="#1e2b3c"/>
    <circle id="Elipse_174" data-name="Elipse 174" cx="2.5" cy="2.5" r="2.5" transform="translate(1363 4130.311)" fill="#1e2b3c"/>
    <circle id="Elipse_175" data-name="Elipse 175" cx="2.5" cy="2.5" r="2.5" transform="translate(1384 4130.311)" fill="#1e2b3c"/>
    <circle id="Elipse_176" data-name="Elipse 176" cx="2.5" cy="2.5" r="2.5" transform="translate(1404 4130.311)" fill="#1e2b3c"/>
    <ellipse id="Elipse_177" data-name="Elipse 177" cx="3" cy="2.5" rx="3" ry="2.5" transform="translate(1426 4130.311)" fill="#1e2b3c"/>
    <ellipse id="Elipse_178" data-name="Elipse 178" cx="3.5" cy="2.5" rx="3.5" ry="2.5" transform="translate(1446 4130.311)" fill="#1e2b3c"/>
    <circle id="Elipse_179" data-name="Elipse 179" cx="2.5" cy="2.5" r="2.5" transform="translate(1467 4130.311)" fill="#1e2b3c"/>
    <ellipse id="Elipse_180" data-name="Elipse 180" cx="2" cy="2.5" rx="2" ry="2.5" transform="translate(1489 4130.311)" fill="#1e2b3c"/>
    <circle id="Elipse_181" data-name="Elipse 181" cx="2.5" cy="2.5" r="2.5" transform="translate(1509 4130.311)" fill="#1e2b3c"/>
    <ellipse id="Elipse_182" data-name="Elipse 182" cx="3" cy="2.5" rx="3" ry="2.5" transform="translate(1530 4130.311)" fill="#1e2b3c"/>
    <circle id="Elipse_183" data-name="Elipse 183" cx="2.5" cy="2.5" r="2.5" transform="translate(1550 4130.311)" fill="#1e2b3c"/>
    <circle id="Elipse_184" data-name="Elipse 184" cx="2.5" cy="2.5" r="2.5" transform="translate(1321 4147.311)" fill="#1e2b3c"/>
    <ellipse id="Elipse_185" data-name="Elipse 185" cx="2" cy="2.5" rx="2" ry="2.5" transform="translate(1343 4147.311)" fill="#1e2b3c"/>
    <circle id="Elipse_186" data-name="Elipse 186" cx="2.5" cy="2.5" r="2.5" transform="translate(1363 4147.311)" fill="#1e2b3c"/>
    <circle id="Elipse_187" data-name="Elipse 187" cx="2.5" cy="2.5" r="2.5" transform="translate(1384 4147.311)" fill="#1e2b3c"/>
    <circle id="Elipse_188" data-name="Elipse 188" cx="2.5" cy="2.5" r="2.5" transform="translate(1404 4147.311)" fill="#1e2b3c"/>
    <ellipse id="Elipse_189" data-name="Elipse 189" cx="3" cy="2.5" rx="3" ry="2.5" transform="translate(1426 4147.311)" fill="#1e2b3c"/>
    <ellipse id="Elipse_190" data-name="Elipse 190" cx="3.5" cy="2.5" rx="3.5" ry="2.5" transform="translate(1446 4147.311)" fill="#1e2b3c"/>
    <circle id="Elipse_191" data-name="Elipse 191" cx="2.5" cy="2.5" r="2.5" transform="translate(1467 4147.311)" fill="#1e2b3c"/>
    <ellipse id="Elipse_192" data-name="Elipse 192" cx="2" cy="2.5" rx="2" ry="2.5" transform="translate(1489 4147.311)" fill="#1e2b3c"/>
    <circle id="Elipse_193" data-name="Elipse 193" cx="2.5" cy="2.5" r="2.5" transform="translate(1509 4147.311)" fill="#1e2b3c"/>
    <ellipse id="Elipse_194" data-name="Elipse 194" cx="3" cy="2.5" rx="3" ry="2.5" transform="translate(1530 4147.311)" fill="#1e2b3c"/>
    <circle id="Elipse_195" data-name="Elipse 195" cx="2.5" cy="2.5" r="2.5" transform="translate(1550 4147.311)" fill="#1e2b3c"/>
    <circle id="Elipse_124-2" data-name="Elipse 124" cx="2.5" cy="2.5" r="2.5" transform="translate(1570 4060.311)" fill="#1e2b3c"/>
    <ellipse id="Elipse_125-2" data-name="Elipse 125" cx="2" cy="2.5" rx="2" ry="2.5" transform="translate(1591 4060.311)" fill="#1e2b3c"/>
    <circle id="Elipse_126-2" data-name="Elipse 126" cx="2.5" cy="2.5" r="2.5" transform="translate(1612 4060.311)" fill="#1e2b3c"/>
    <ellipse id="Elipse_127-2" data-name="Elipse 127" cx="3" cy="2.5" rx="3" ry="2.5" transform="translate(1632 4060.311)" fill="#1e2b3c"/>
    <circle id="Elipse_128-2" data-name="Elipse 128" cx="2.5" cy="2.5" r="2.5" transform="translate(1653 4060.311)" fill="#1e2b3c"/>
    <circle id="Elipse_129-2" data-name="Elipse 129" cx="2.5" cy="2.5" r="2.5" transform="translate(1675 4060.311)" fill="#1e2b3c"/>
    <circle id="Elipse_130-2" data-name="Elipse 130" cx="2.5" cy="2.5" r="2.5" transform="translate(1695 4060.311)" fill="#1e2b3c"/>
    <circle id="Elipse_131-2" data-name="Elipse 131" cx="2.5" cy="2.5" r="2.5" transform="translate(1716 4060.311)" fill="#1e2b3c"/>
    <circle id="Elipse_136-2" data-name="Elipse 136" cx="2.5" cy="2.5" r="2.5" transform="translate(1570 4077.311)" fill="#1e2b3c"/>
    <ellipse id="Elipse_137-2" data-name="Elipse 137" cx="2" cy="2.5" rx="2" ry="2.5" transform="translate(1591 4077.311)" fill="#1e2b3c"/>
    <circle id="Elipse_138-2" data-name="Elipse 138" cx="2.5" cy="2.5" r="2.5" transform="translate(1612 4077.311)" fill="#1e2b3c"/>
    <ellipse id="Elipse_139-2" data-name="Elipse 139" cx="3" cy="2.5" rx="3" ry="2.5" transform="translate(1632 4077.311)" fill="#1e2b3c"/>
    <circle id="Elipse_140-2" data-name="Elipse 140" cx="2.5" cy="2.5" r="2.5" transform="translate(1653 4077.311)" fill="#1e2b3c"/>
    <circle id="Elipse_141-2" data-name="Elipse 141" cx="2.5" cy="2.5" r="2.5" transform="translate(1675 4077.311)" fill="#1e2b3c"/>
    <circle id="Elipse_142-2" data-name="Elipse 142" cx="2.5" cy="2.5" r="2.5" transform="translate(1695 4077.311)" fill="#1e2b3c"/>
    <circle id="Elipse_143-2" data-name="Elipse 143" cx="2.5" cy="2.5" r="2.5" transform="translate(1716 4077.311)" fill="#1e2b3c"/>
    <circle id="Elipse_148-2" data-name="Elipse 148" cx="2.5" cy="2.5" r="2.5" transform="translate(1570 4094.311)" fill="#1e2b3c"/>
    <ellipse id="Elipse_149-2" data-name="Elipse 149" cx="2" cy="2.5" rx="2" ry="2.5" transform="translate(1591 4094.311)" fill="#1e2b3c"/>
    <circle id="Elipse_150-2" data-name="Elipse 150" cx="2.5" cy="2.5" r="2.5" transform="translate(1612 4094.311)" fill="#1e2b3c"/>
    <ellipse id="Elipse_151-2" data-name="Elipse 151" cx="3" cy="2.5" rx="3" ry="2.5" transform="translate(1632 4094.311)" fill="#1e2b3c"/>
    <circle id="Elipse_152-2" data-name="Elipse 152" cx="2.5" cy="2.5" r="2.5" transform="translate(1653 4094.311)" fill="#1e2b3c"/>
    <circle id="Elipse_153-2" data-name="Elipse 153" cx="2.5" cy="2.5" r="2.5" transform="translate(1675 4094.311)" fill="#1e2b3c"/>
    <circle id="Elipse_154-2" data-name="Elipse 154" cx="2.5" cy="2.5" r="2.5" transform="translate(1695 4094.311)" fill="#1e2b3c"/>
    <circle id="Elipse_155-2" data-name="Elipse 155" cx="2.5" cy="2.5" r="2.5" transform="translate(1716 4094.311)" fill="#1e2b3c"/>
    <ellipse id="Elipse_160-2" data-name="Elipse 160" cx="2.5" cy="3" rx="2.5" ry="3" transform="translate(1570 4111.311)" fill="#1e2b3c"/>
    <ellipse id="Elipse_161-2" data-name="Elipse 161" cx="2" cy="3" rx="2" ry="3" transform="translate(1591 4111.311)" fill="#1e2b3c"/>
    <ellipse id="Elipse_162-2" data-name="Elipse 162" cx="2.5" cy="3" rx="2.5" ry="3" transform="translate(1612 4111.311)" fill="#1e2b3c"/>
    <circle id="Elipse_163-2" data-name="Elipse 163" cx="3" cy="3" r="3" transform="translate(1632 4111.311)" fill="#1e2b3c"/>
    <ellipse id="Elipse_164-2" data-name="Elipse 164" cx="2.5" cy="3" rx="2.5" ry="3" transform="translate(1653 4111.311)" fill="#1e2b3c"/>
    <ellipse id="Elipse_165-2" data-name="Elipse 165" cx="2.5" cy="3" rx="2.5" ry="3" transform="translate(1675 4111.311)" fill="#1e2b3c"/>
    <ellipse id="Elipse_166-2" data-name="Elipse 166" cx="2.5" cy="3" rx="2.5" ry="3" transform="translate(1695 4111.311)" fill="#1e2b3c"/>
    <ellipse id="Elipse_167-2" data-name="Elipse 167" cx="2.5" cy="3" rx="2.5" ry="3" transform="translate(1716 4111.311)" fill="#1e2b3c"/>
    <circle id="Elipse_172-2" data-name="Elipse 172" cx="2.5" cy="2.5" r="2.5" transform="translate(1570 4130.311)" fill="#1e2b3c"/>
    <ellipse id="Elipse_173-2" data-name="Elipse 173" cx="2" cy="2.5" rx="2" ry="2.5" transform="translate(1591 4130.311)" fill="#1e2b3c"/>
    <circle id="Elipse_174-2" data-name="Elipse 174" cx="2.5" cy="2.5" r="2.5" transform="translate(1612 4130.311)" fill="#1e2b3c"/>
    <ellipse id="Elipse_175-2" data-name="Elipse 175" cx="3" cy="2.5" rx="3" ry="2.5" transform="translate(1632 4130.311)" fill="#1e2b3c"/>
    <circle id="Elipse_176-2" data-name="Elipse 176" cx="2.5" cy="2.5" r="2.5" transform="translate(1653 4130.311)" fill="#1e2b3c"/>
    <circle id="Elipse_177-2" data-name="Elipse 177" cx="2.5" cy="2.5" r="2.5" transform="translate(1675 4130.311)" fill="#1e2b3c"/>
    <circle id="Elipse_178-2" data-name="Elipse 178" cx="2.5" cy="2.5" r="2.5" transform="translate(1695 4130.311)" fill="#1e2b3c"/>
    <circle id="Elipse_179-2" data-name="Elipse 179" cx="2.5" cy="2.5" r="2.5" transform="translate(1716 4130.311)" fill="#1e2b3c"/>
    <circle id="Elipse_184-2" data-name="Elipse 184" cx="2.5" cy="2.5" r="2.5" transform="translate(1570 4147.311)" fill="#1e2b3c"/>
    <ellipse id="Elipse_185-2" data-name="Elipse 185" cx="2" cy="2.5" rx="2" ry="2.5" transform="translate(1591 4147.311)" fill="#1e2b3c"/>
    <circle id="Elipse_186-2" data-name="Elipse 186" cx="2.5" cy="2.5" r="2.5" transform="translate(1612 4147.311)" fill="#1e2b3c"/>
    <ellipse id="Elipse_187-2" data-name="Elipse 187" cx="3" cy="2.5" rx="3" ry="2.5" transform="translate(1632 4147.311)" fill="#1e2b3c"/>
    <circle id="Elipse_188-2" data-name="Elipse 188" cx="2.5" cy="2.5" r="2.5" transform="translate(1653 4147.311)" fill="#1e2b3c"/>
    <circle id="Elipse_189-2" data-name="Elipse 189" cx="2.5" cy="2.5" r="2.5" transform="translate(1675 4147.311)" fill="#1e2b3c"/>
    <circle id="Elipse_190-2" data-name="Elipse 190" cx="2.5" cy="2.5" r="2.5" transform="translate(1695 4147.311)" fill="#1e2b3c"/>
    <circle id="Elipse_191-2" data-name="Elipse 191" cx="2.5" cy="2.5" r="2.5" transform="translate(1716 4147.311)" fill="#1e2b3c"/>
    <ellipse id="Elipse_132-2" data-name="Elipse 132" cx="2" cy="2.5" rx="2" ry="2.5" transform="translate(1737 4060.311)" fill="#1e2b3c"/>
    <circle id="Elipse_133-2" data-name="Elipse 133" cx="2.5" cy="2.5" r="2.5" transform="translate(1758 4060.311)" fill="#1e2b3c"/>
    <circle id="Elipse_134-2" data-name="Elipse 134" cx="2.5" cy="2.5" r="2.5" transform="translate(1778 4060.311)" fill="#1e2b3c"/>
    <circle id="Elipse_135-2" data-name="Elipse 135" cx="2.5" cy="2.5" r="2.5" transform="translate(1799 4060.311)" fill="#1e2b3c"/>
    <ellipse id="Elipse_144-2" data-name="Elipse 144" cx="2" cy="2.5" rx="2" ry="2.5" transform="translate(1737 4077.311)" fill="#1e2b3c"/>
    <circle id="Elipse_145-2" data-name="Elipse 145" cx="2.5" cy="2.5" r="2.5" transform="translate(1758 4077.311)" fill="#1e2b3c"/>
    <circle id="Elipse_146-2" data-name="Elipse 146" cx="2.5" cy="2.5" r="2.5" transform="translate(1778 4077.311)" fill="#1e2b3c"/>
    <circle id="Elipse_147-2" data-name="Elipse 147" cx="2.5" cy="2.5" r="2.5" transform="translate(1799 4077.311)" fill="#1e2b3c"/>
    <ellipse id="Elipse_156-2" data-name="Elipse 156" cx="2" cy="2.5" rx="2" ry="2.5" transform="translate(1737 4094.311)" fill="#1e2b3c"/>
    <circle id="Elipse_157-2" data-name="Elipse 157" cx="2.5" cy="2.5" r="2.5" transform="translate(1758 4094.311)" fill="#1e2b3c"/>
    <circle id="Elipse_158-2" data-name="Elipse 158" cx="2.5" cy="2.5" r="2.5" transform="translate(1778 4094.311)" fill="#1e2b3c"/>
    <circle id="Elipse_159-2" data-name="Elipse 159" cx="2.5" cy="2.5" r="2.5" transform="translate(1799 4094.311)" fill="#1e2b3c"/>
    <ellipse id="Elipse_168-2" data-name="Elipse 168" cx="2" cy="3" rx="2" ry="3" transform="translate(1737 4111.311)" fill="#1e2b3c"/>
    <ellipse id="Elipse_169-2" data-name="Elipse 169" cx="2.5" cy="3" rx="2.5" ry="3" transform="translate(1758 4111.311)" fill="#1e2b3c"/>
    <ellipse id="Elipse_170-2" data-name="Elipse 170" cx="2.5" cy="3" rx="2.5" ry="3" transform="translate(1778 4111.311)" fill="#1e2b3c"/>
    <ellipse id="Elipse_171-2" data-name="Elipse 171" cx="2.5" cy="3" rx="2.5" ry="3" transform="translate(1799 4111.311)" fill="#1e2b3c"/>
    <ellipse id="Elipse_180-2" data-name="Elipse 180" cx="2" cy="2.5" rx="2" ry="2.5" transform="translate(1737 4130.311)" fill="#1e2b3c"/>
    <circle id="Elipse_181-2" data-name="Elipse 181" cx="2.5" cy="2.5" r="2.5" transform="translate(1758 4130.311)" fill="#1e2b3c"/>
    <circle id="Elipse_182-2" data-name="Elipse 182" cx="2.5" cy="2.5" r="2.5" transform="translate(1778 4130.311)" fill="#1e2b3c"/>
    <circle id="Elipse_183-2" data-name="Elipse 183" cx="2.5" cy="2.5" r="2.5" transform="translate(1799 4130.311)" fill="#1e2b3c"/>
    <ellipse id="Elipse_192-2" data-name="Elipse 192" cx="2" cy="2.5" rx="2" ry="2.5" transform="translate(1737 4147.311)" fill="#1e2b3c"/>
    <circle id="Elipse_193-2" data-name="Elipse 193" cx="2.5" cy="2.5" r="2.5" transform="translate(1758 4147.311)" fill="#1e2b3c"/>
    <circle id="Elipse_194-2" data-name="Elipse 194" cx="2.5" cy="2.5" r="2.5" transform="translate(1778 4147.311)" fill="#1e2b3c"/>
    <circle id="Elipse_195-2" data-name="Elipse 195" cx="2.5" cy="2.5" r="2.5" transform="translate(1799 4147.311)" fill="#1e2b3c"/>
  </g>
</svg>
