<svg xmlns="http://www.w3.org/2000/svg" width="200" height="584" viewBox="0 0 200 584">
  <g id="Grupo_4199" data-name="Grupo 4199" transform="translate(4259.808 -1321) rotate(90)" opacity="0.1">
    <ellipse id="Elipse_124" data-name="Elipse 124" cx="3.5" cy="3" rx="3.5" ry="3" transform="translate(1321 4059.808)" fill="#1e2b3c"/>
    <ellipse id="Elipse_125" data-name="Elipse 125" cx="2.5" cy="3" rx="2.5" ry="3" transform="translate(1347 4059.808)" fill="#1e2b3c"/>
    <ellipse id="Elipse_126" data-name="Elipse 126" cx="3.5" cy="3" rx="3.5" ry="3" transform="translate(1371 4059.808)" fill="#1e2b3c"/>
    <circle id="Elipse_127" data-name="Elipse 127" cx="3" cy="3" r="3" transform="translate(1397 4059.808)" fill="#1e2b3c"/>
    <circle id="Elipse_128" data-name="Elipse 128" cx="3" cy="3" r="3" transform="translate(1422 4059.808)" fill="#1e2b3c"/>
    <ellipse id="Elipse_129" data-name="Elipse 129" cx="3.5" cy="3" rx="3.5" ry="3" transform="translate(1447 4059.808)" fill="#1e2b3c"/>
    <ellipse id="Elipse_130" data-name="Elipse 130" cx="3.5" cy="3" rx="3.5" ry="3" transform="translate(1472 4059.808)" fill="#1e2b3c"/>
    <circle id="Elipse_131" data-name="Elipse 131" cx="3" cy="3" r="3" transform="translate(1498 4059.808)" fill="#1e2b3c"/>
    <circle id="Elipse_132" data-name="Elipse 132" cx="3" cy="3" r="3" transform="translate(1523 4059.808)" fill="#1e2b3c"/>
    <circle id="Elipse_133" data-name="Elipse 133" cx="3" cy="3" r="3" transform="translate(1548 4059.808)" fill="#1e2b3c"/>
    <circle id="Elipse_134" data-name="Elipse 134" cx="3" cy="3" r="3" transform="translate(1573 4059.808)" fill="#1e2b3c"/>
    <ellipse id="Elipse_135" data-name="Elipse 135" cx="3.5" cy="3" rx="3.5" ry="3" transform="translate(1598 4059.808)" fill="#1e2b3c"/>
    <ellipse id="Elipse_136" data-name="Elipse 136" cx="3.5" cy="3" rx="3.5" ry="3" transform="translate(1321 4098.808)" fill="#1e2b3c"/>
    <ellipse id="Elipse_137" data-name="Elipse 137" cx="2.5" cy="3" rx="2.5" ry="3" transform="translate(1347 4098.808)" fill="#1e2b3c"/>
    <ellipse id="Elipse_138" data-name="Elipse 138" cx="3.5" cy="3" rx="3.5" ry="3" transform="translate(1371 4098.808)" fill="#1e2b3c"/>
    <circle id="Elipse_139" data-name="Elipse 139" cx="3" cy="3" r="3" transform="translate(1397 4098.808)" fill="#1e2b3c"/>
    <circle id="Elipse_140" data-name="Elipse 140" cx="3" cy="3" r="3" transform="translate(1422 4098.808)" fill="#1e2b3c"/>
    <ellipse id="Elipse_141" data-name="Elipse 141" cx="3.5" cy="3" rx="3.5" ry="3" transform="translate(1447 4098.808)" fill="#1e2b3c"/>
    <ellipse id="Elipse_142" data-name="Elipse 142" cx="3.5" cy="3" rx="3.5" ry="3" transform="translate(1472 4098.808)" fill="#1e2b3c"/>
    <circle id="Elipse_143" data-name="Elipse 143" cx="3" cy="3" r="3" transform="translate(1498 4098.808)" fill="#1e2b3c"/>
    <circle id="Elipse_144" data-name="Elipse 144" cx="3" cy="3" r="3" transform="translate(1523 4098.808)" fill="#1e2b3c"/>
    <circle id="Elipse_145" data-name="Elipse 145" cx="3" cy="3" r="3" transform="translate(1548 4098.808)" fill="#1e2b3c"/>
    <circle id="Elipse_146" data-name="Elipse 146" cx="3" cy="3" r="3" transform="translate(1573 4098.808)" fill="#1e2b3c"/>
    <ellipse id="Elipse_147" data-name="Elipse 147" cx="3.5" cy="3" rx="3.5" ry="3" transform="translate(1598 4098.808)" fill="#1e2b3c"/>
    <circle id="Elipse_148" data-name="Elipse 148" cx="3.5" cy="3.5" r="3.5" transform="translate(1321 4136.808)" fill="#1e2b3c"/>
    <ellipse id="Elipse_149" data-name="Elipse 149" cx="2.5" cy="3.5" rx="2.5" ry="3.5" transform="translate(1347 4136.808)" fill="#1e2b3c"/>
    <circle id="Elipse_150" data-name="Elipse 150" cx="3.5" cy="3.5" r="3.5" transform="translate(1371 4136.808)" fill="#1e2b3c"/>
    <ellipse id="Elipse_151" data-name="Elipse 151" cx="3" cy="3.5" rx="3" ry="3.5" transform="translate(1397 4136.808)" fill="#1e2b3c"/>
    <ellipse id="Elipse_152" data-name="Elipse 152" cx="3" cy="3.5" rx="3" ry="3.5" transform="translate(1422 4136.808)" fill="#1e2b3c"/>
    <circle id="Elipse_153" data-name="Elipse 153" cx="3.5" cy="3.5" r="3.5" transform="translate(1447 4136.808)" fill="#1e2b3c"/>
    <circle id="Elipse_154" data-name="Elipse 154" cx="3.5" cy="3.5" r="3.5" transform="translate(1472 4136.808)" fill="#1e2b3c"/>
    <ellipse id="Elipse_155" data-name="Elipse 155" cx="3" cy="3.5" rx="3" ry="3.5" transform="translate(1498 4136.808)" fill="#1e2b3c"/>
    <ellipse id="Elipse_156" data-name="Elipse 156" cx="3" cy="3.5" rx="3" ry="3.5" transform="translate(1523 4136.808)" fill="#1e2b3c"/>
    <ellipse id="Elipse_157" data-name="Elipse 157" cx="3" cy="3.5" rx="3" ry="3.5" transform="translate(1548 4136.808)" fill="#1e2b3c"/>
    <ellipse id="Elipse_158" data-name="Elipse 158" cx="3" cy="3.5" rx="3" ry="3.5" transform="translate(1573 4136.808)" fill="#1e2b3c"/>
    <circle id="Elipse_159" data-name="Elipse 159" cx="3.5" cy="3.5" r="3.5" transform="translate(1598 4136.808)" fill="#1e2b3c"/>
    <circle id="Elipse_160" data-name="Elipse 160" cx="3.5" cy="3.5" r="3.5" transform="translate(1321 4175.808)" fill="#1e2b3c"/>
    <ellipse id="Elipse_161" data-name="Elipse 161" cx="2.5" cy="3.5" rx="2.5" ry="3.5" transform="translate(1347 4175.808)" fill="#1e2b3c"/>
    <circle id="Elipse_162" data-name="Elipse 162" cx="3.5" cy="3.5" r="3.5" transform="translate(1371 4175.808)" fill="#1e2b3c"/>
    <ellipse id="Elipse_163" data-name="Elipse 163" cx="3" cy="3.5" rx="3" ry="3.5" transform="translate(1397 4175.808)" fill="#1e2b3c"/>
    <ellipse id="Elipse_164" data-name="Elipse 164" cx="3" cy="3.5" rx="3" ry="3.5" transform="translate(1422 4175.808)" fill="#1e2b3c"/>
    <circle id="Elipse_165" data-name="Elipse 165" cx="3.5" cy="3.5" r="3.5" transform="translate(1447 4175.808)" fill="#1e2b3c"/>
    <circle id="Elipse_166" data-name="Elipse 166" cx="3.5" cy="3.5" r="3.5" transform="translate(1472 4175.808)" fill="#1e2b3c"/>
    <ellipse id="Elipse_167" data-name="Elipse 167" cx="3" cy="3.5" rx="3" ry="3.5" transform="translate(1498 4175.808)" fill="#1e2b3c"/>
    <ellipse id="Elipse_168" data-name="Elipse 168" cx="3" cy="3.5" rx="3" ry="3.5" transform="translate(1523 4175.808)" fill="#1e2b3c"/>
    <ellipse id="Elipse_169" data-name="Elipse 169" cx="3" cy="3.5" rx="3" ry="3.5" transform="translate(1548 4175.808)" fill="#1e2b3c"/>
    <ellipse id="Elipse_170" data-name="Elipse 170" cx="3" cy="3.5" rx="3" ry="3.5" transform="translate(1573 4175.808)" fill="#1e2b3c"/>
    <circle id="Elipse_171" data-name="Elipse 171" cx="3.5" cy="3.5" r="3.5" transform="translate(1598 4175.808)" fill="#1e2b3c"/>
    <ellipse id="Elipse_172" data-name="Elipse 172" cx="3.5" cy="3" rx="3.5" ry="3" transform="translate(1321 4213.808)" fill="#1e2b3c"/>
    <ellipse id="Elipse_173" data-name="Elipse 173" cx="2.5" cy="3" rx="2.5" ry="3" transform="translate(1347 4213.808)" fill="#1e2b3c"/>
    <ellipse id="Elipse_174" data-name="Elipse 174" cx="3.5" cy="3" rx="3.5" ry="3" transform="translate(1371 4213.808)" fill="#1e2b3c"/>
    <circle id="Elipse_175" data-name="Elipse 175" cx="3" cy="3" r="3" transform="translate(1397 4213.808)" fill="#1e2b3c"/>
    <circle id="Elipse_176" data-name="Elipse 176" cx="3" cy="3" r="3" transform="translate(1422 4213.808)" fill="#1e2b3c"/>
    <ellipse id="Elipse_177" data-name="Elipse 177" cx="3.5" cy="3" rx="3.5" ry="3" transform="translate(1447 4213.808)" fill="#1e2b3c"/>
    <ellipse id="Elipse_178" data-name="Elipse 178" cx="3.5" cy="3" rx="3.5" ry="3" transform="translate(1472 4213.808)" fill="#1e2b3c"/>
    <circle id="Elipse_179" data-name="Elipse 179" cx="3" cy="3" r="3" transform="translate(1498 4213.808)" fill="#1e2b3c"/>
    <circle id="Elipse_180" data-name="Elipse 180" cx="3" cy="3" r="3" transform="translate(1523 4213.808)" fill="#1e2b3c"/>
    <circle id="Elipse_181" data-name="Elipse 181" cx="3" cy="3" r="3" transform="translate(1548 4213.808)" fill="#1e2b3c"/>
    <circle id="Elipse_182" data-name="Elipse 182" cx="3" cy="3" r="3" transform="translate(1573 4213.808)" fill="#1e2b3c"/>
    <ellipse id="Elipse_183" data-name="Elipse 183" cx="3.5" cy="3" rx="3.5" ry="3" transform="translate(1598 4213.808)" fill="#1e2b3c"/>
    <ellipse id="Elipse_184" data-name="Elipse 184" cx="3.5" cy="3" rx="3.5" ry="3" transform="translate(1321 4253.808)" fill="#1e2b3c"/>
    <ellipse id="Elipse_185" data-name="Elipse 185" cx="2.5" cy="3" rx="2.5" ry="3" transform="translate(1347 4253.808)" fill="#1e2b3c"/>
    <ellipse id="Elipse_186" data-name="Elipse 186" cx="3.5" cy="3" rx="3.5" ry="3" transform="translate(1371 4253.808)" fill="#1e2b3c"/>
    <circle id="Elipse_187" data-name="Elipse 187" cx="3" cy="3" r="3" transform="translate(1397 4253.808)" fill="#1e2b3c"/>
    <circle id="Elipse_188" data-name="Elipse 188" cx="3" cy="3" r="3" transform="translate(1422 4253.808)" fill="#1e2b3c"/>
    <ellipse id="Elipse_189" data-name="Elipse 189" cx="3.5" cy="3" rx="3.5" ry="3" transform="translate(1447 4253.808)" fill="#1e2b3c"/>
    <ellipse id="Elipse_190" data-name="Elipse 190" cx="3.5" cy="3" rx="3.5" ry="3" transform="translate(1472 4253.808)" fill="#1e2b3c"/>
    <circle id="Elipse_191" data-name="Elipse 191" cx="3" cy="3" r="3" transform="translate(1498 4253.808)" fill="#1e2b3c"/>
    <circle id="Elipse_192" data-name="Elipse 192" cx="3" cy="3" r="3" transform="translate(1523 4253.808)" fill="#1e2b3c"/>
    <circle id="Elipse_193" data-name="Elipse 193" cx="3" cy="3" r="3" transform="translate(1548 4253.808)" fill="#1e2b3c"/>
    <circle id="Elipse_194" data-name="Elipse 194" cx="3" cy="3" r="3" transform="translate(1573 4253.808)" fill="#1e2b3c"/>
    <ellipse id="Elipse_195" data-name="Elipse 195" cx="3.5" cy="3" rx="3.5" ry="3" transform="translate(1598 4253.808)" fill="#1e2b3c"/>
    <ellipse id="Elipse_124-2" data-name="Elipse 124" cx="3.5" cy="3" rx="3.5" ry="3" transform="translate(1621 4059.808)" fill="#1e2b3c"/>
    <circle id="Elipse_125-2" data-name="Elipse 125" cx="3" cy="3" r="3" transform="translate(1647 4059.808)" fill="#1e2b3c"/>
    <circle id="Elipse_126-2" data-name="Elipse 126" cx="3" cy="3" r="3" transform="translate(1672 4059.808)" fill="#1e2b3c"/>
    <circle id="Elipse_127-2" data-name="Elipse 127" cx="3" cy="3" r="3" transform="translate(1697 4059.808)" fill="#1e2b3c"/>
    <circle id="Elipse_128-2" data-name="Elipse 128" cx="3" cy="3" r="3" transform="translate(1722 4059.808)" fill="#1e2b3c"/>
    <ellipse id="Elipse_129-2" data-name="Elipse 129" cx="3.5" cy="3" rx="3.5" ry="3" transform="translate(1747 4059.808)" fill="#1e2b3c"/>
    <ellipse id="Elipse_130-2" data-name="Elipse 130" cx="3.5" cy="3" rx="3.5" ry="3" transform="translate(1772 4059.808)" fill="#1e2b3c"/>
    <circle id="Elipse_131-2" data-name="Elipse 131" cx="3" cy="3" r="3" transform="translate(1798 4059.808)" fill="#1e2b3c"/>
    <ellipse id="Elipse_136-2" data-name="Elipse 136" cx="3.5" cy="3" rx="3.5" ry="3" transform="translate(1621 4098.808)" fill="#1e2b3c"/>
    <circle id="Elipse_137-2" data-name="Elipse 137" cx="3" cy="3" r="3" transform="translate(1647 4098.808)" fill="#1e2b3c"/>
    <circle id="Elipse_138-2" data-name="Elipse 138" cx="3" cy="3" r="3" transform="translate(1672 4098.808)" fill="#1e2b3c"/>
    <circle id="Elipse_139-2" data-name="Elipse 139" cx="3" cy="3" r="3" transform="translate(1697 4098.808)" fill="#1e2b3c"/>
    <circle id="Elipse_140-2" data-name="Elipse 140" cx="3" cy="3" r="3" transform="translate(1722 4098.808)" fill="#1e2b3c"/>
    <ellipse id="Elipse_141-2" data-name="Elipse 141" cx="3.5" cy="3" rx="3.5" ry="3" transform="translate(1747 4098.808)" fill="#1e2b3c"/>
    <ellipse id="Elipse_142-2" data-name="Elipse 142" cx="3.5" cy="3" rx="3.5" ry="3" transform="translate(1772 4098.808)" fill="#1e2b3c"/>
    <circle id="Elipse_143-2" data-name="Elipse 143" cx="3" cy="3" r="3" transform="translate(1798 4098.808)" fill="#1e2b3c"/>
    <circle id="Elipse_148-2" data-name="Elipse 148" cx="3.5" cy="3.5" r="3.5" transform="translate(1621 4136.808)" fill="#1e2b3c"/>
    <ellipse id="Elipse_149-2" data-name="Elipse 149" cx="3" cy="3.5" rx="3" ry="3.5" transform="translate(1647 4136.808)" fill="#1e2b3c"/>
    <ellipse id="Elipse_150-2" data-name="Elipse 150" cx="3" cy="3.5" rx="3" ry="3.5" transform="translate(1672 4136.808)" fill="#1e2b3c"/>
    <ellipse id="Elipse_151-2" data-name="Elipse 151" cx="3" cy="3.5" rx="3" ry="3.5" transform="translate(1697 4136.808)" fill="#1e2b3c"/>
    <ellipse id="Elipse_152-2" data-name="Elipse 152" cx="3" cy="3.5" rx="3" ry="3.5" transform="translate(1722 4136.808)" fill="#1e2b3c"/>
    <circle id="Elipse_153-2" data-name="Elipse 153" cx="3.5" cy="3.5" r="3.5" transform="translate(1747 4136.808)" fill="#1e2b3c"/>
    <circle id="Elipse_154-2" data-name="Elipse 154" cx="3.5" cy="3.5" r="3.5" transform="translate(1772 4136.808)" fill="#1e2b3c"/>
    <ellipse id="Elipse_155-2" data-name="Elipse 155" cx="3" cy="3.5" rx="3" ry="3.5" transform="translate(1798 4136.808)" fill="#1e2b3c"/>
    <circle id="Elipse_160-2" data-name="Elipse 160" cx="3.5" cy="3.5" r="3.5" transform="translate(1621 4175.808)" fill="#1e2b3c"/>
    <ellipse id="Elipse_161-2" data-name="Elipse 161" cx="3" cy="3.5" rx="3" ry="3.5" transform="translate(1647 4175.808)" fill="#1e2b3c"/>
    <ellipse id="Elipse_162-2" data-name="Elipse 162" cx="3" cy="3.5" rx="3" ry="3.5" transform="translate(1672 4175.808)" fill="#1e2b3c"/>
    <ellipse id="Elipse_163-2" data-name="Elipse 163" cx="3" cy="3.5" rx="3" ry="3.5" transform="translate(1697 4175.808)" fill="#1e2b3c"/>
    <ellipse id="Elipse_164-2" data-name="Elipse 164" cx="3" cy="3.5" rx="3" ry="3.5" transform="translate(1722 4175.808)" fill="#1e2b3c"/>
    <circle id="Elipse_165-2" data-name="Elipse 165" cx="3.5" cy="3.5" r="3.5" transform="translate(1747 4175.808)" fill="#1e2b3c"/>
    <circle id="Elipse_166-2" data-name="Elipse 166" cx="3.5" cy="3.5" r="3.5" transform="translate(1772 4175.808)" fill="#1e2b3c"/>
    <ellipse id="Elipse_167-2" data-name="Elipse 167" cx="3" cy="3.5" rx="3" ry="3.5" transform="translate(1798 4175.808)" fill="#1e2b3c"/>
    <ellipse id="Elipse_172-2" data-name="Elipse 172" cx="3.5" cy="3" rx="3.5" ry="3" transform="translate(1621 4213.808)" fill="#1e2b3c"/>
    <circle id="Elipse_173-2" data-name="Elipse 173" cx="3" cy="3" r="3" transform="translate(1647 4213.808)" fill="#1e2b3c"/>
    <circle id="Elipse_174-2" data-name="Elipse 174" cx="3" cy="3" r="3" transform="translate(1672 4213.808)" fill="#1e2b3c"/>
    <circle id="Elipse_175-2" data-name="Elipse 175" cx="3" cy="3" r="3" transform="translate(1697 4213.808)" fill="#1e2b3c"/>
    <circle id="Elipse_176-2" data-name="Elipse 176" cx="3" cy="3" r="3" transform="translate(1722 4213.808)" fill="#1e2b3c"/>
    <ellipse id="Elipse_177-2" data-name="Elipse 177" cx="3.5" cy="3" rx="3.5" ry="3" transform="translate(1747 4213.808)" fill="#1e2b3c"/>
    <ellipse id="Elipse_178-2" data-name="Elipse 178" cx="3.5" cy="3" rx="3.5" ry="3" transform="translate(1772 4213.808)" fill="#1e2b3c"/>
    <circle id="Elipse_179-2" data-name="Elipse 179" cx="3" cy="3" r="3" transform="translate(1798 4213.808)" fill="#1e2b3c"/>
    <ellipse id="Elipse_184-2" data-name="Elipse 184" cx="3.5" cy="3" rx="3.5" ry="3" transform="translate(1621 4253.808)" fill="#1e2b3c"/>
    <circle id="Elipse_185-2" data-name="Elipse 185" cx="3" cy="3" r="3" transform="translate(1647 4253.808)" fill="#1e2b3c"/>
    <circle id="Elipse_186-2" data-name="Elipse 186" cx="3" cy="3" r="3" transform="translate(1672 4253.808)" fill="#1e2b3c"/>
    <circle id="Elipse_187-2" data-name="Elipse 187" cx="3" cy="3" r="3" transform="translate(1697 4253.808)" fill="#1e2b3c"/>
    <circle id="Elipse_188-2" data-name="Elipse 188" cx="3" cy="3" r="3" transform="translate(1722 4253.808)" fill="#1e2b3c"/>
    <ellipse id="Elipse_189-2" data-name="Elipse 189" cx="3.5" cy="3" rx="3.5" ry="3" transform="translate(1747 4253.808)" fill="#1e2b3c"/>
    <ellipse id="Elipse_190-2" data-name="Elipse 190" cx="3.5" cy="3" rx="3.5" ry="3" transform="translate(1772 4253.808)" fill="#1e2b3c"/>
    <circle id="Elipse_191-2" data-name="Elipse 191" cx="3" cy="3" r="3" transform="translate(1798 4253.808)" fill="#1e2b3c"/>
    <circle id="Elipse_132-2" data-name="Elipse 132" cx="3" cy="3" r="3" transform="translate(1823 4059.808)" fill="#1e2b3c"/>
    <ellipse id="Elipse_133-2" data-name="Elipse 133" cx="3.5" cy="3" rx="3.5" ry="3" transform="translate(1848 4059.808)" fill="#1e2b3c"/>
    <ellipse id="Elipse_134-2" data-name="Elipse 134" cx="2.5" cy="3" rx="2.5" ry="3" transform="translate(1874 4059.808)" fill="#1e2b3c"/>
    <ellipse id="Elipse_135-2" data-name="Elipse 135" cx="3.5" cy="3" rx="3.5" ry="3" transform="translate(1898 4059.808)" fill="#1e2b3c"/>
    <circle id="Elipse_144-2" data-name="Elipse 144" cx="3" cy="3" r="3" transform="translate(1823 4098.808)" fill="#1e2b3c"/>
    <ellipse id="Elipse_145-2" data-name="Elipse 145" cx="3.5" cy="3" rx="3.5" ry="3" transform="translate(1848 4098.808)" fill="#1e2b3c"/>
    <ellipse id="Elipse_146-2" data-name="Elipse 146" cx="2.5" cy="3" rx="2.5" ry="3" transform="translate(1874 4098.808)" fill="#1e2b3c"/>
    <ellipse id="Elipse_147-2" data-name="Elipse 147" cx="3.5" cy="3" rx="3.5" ry="3" transform="translate(1898 4098.808)" fill="#1e2b3c"/>
    <ellipse id="Elipse_156-2" data-name="Elipse 156" cx="3" cy="3.5" rx="3" ry="3.5" transform="translate(1823 4136.808)" fill="#1e2b3c"/>
    <circle id="Elipse_157-2" data-name="Elipse 157" cx="3.5" cy="3.5" r="3.5" transform="translate(1848 4136.808)" fill="#1e2b3c"/>
    <ellipse id="Elipse_158-2" data-name="Elipse 158" cx="2.5" cy="3.5" rx="2.5" ry="3.5" transform="translate(1874 4136.808)" fill="#1e2b3c"/>
    <circle id="Elipse_159-2" data-name="Elipse 159" cx="3.5" cy="3.5" r="3.5" transform="translate(1898 4136.808)" fill="#1e2b3c"/>
    <ellipse id="Elipse_168-2" data-name="Elipse 168" cx="3" cy="3.5" rx="3" ry="3.5" transform="translate(1823 4175.808)" fill="#1e2b3c"/>
    <circle id="Elipse_169-2" data-name="Elipse 169" cx="3.5" cy="3.5" r="3.5" transform="translate(1848 4175.808)" fill="#1e2b3c"/>
    <ellipse id="Elipse_170-2" data-name="Elipse 170" cx="2.5" cy="3.5" rx="2.5" ry="3.5" transform="translate(1874 4175.808)" fill="#1e2b3c"/>
    <circle id="Elipse_171-2" data-name="Elipse 171" cx="3.5" cy="3.5" r="3.5" transform="translate(1898 4175.808)" fill="#1e2b3c"/>
    <circle id="Elipse_180-2" data-name="Elipse 180" cx="3" cy="3" r="3" transform="translate(1823 4213.808)" fill="#1e2b3c"/>
    <ellipse id="Elipse_181-2" data-name="Elipse 181" cx="3.5" cy="3" rx="3.5" ry="3" transform="translate(1848 4213.808)" fill="#1e2b3c"/>
    <ellipse id="Elipse_182-2" data-name="Elipse 182" cx="2.5" cy="3" rx="2.5" ry="3" transform="translate(1874 4213.808)" fill="#1e2b3c"/>
    <ellipse id="Elipse_183-2" data-name="Elipse 183" cx="3.5" cy="3" rx="3.5" ry="3" transform="translate(1898 4213.808)" fill="#1e2b3c"/>
    <circle id="Elipse_192-2" data-name="Elipse 192" cx="3" cy="3" r="3" transform="translate(1823 4253.808)" fill="#1e2b3c"/>
    <ellipse id="Elipse_193-2" data-name="Elipse 193" cx="3.5" cy="3" rx="3.5" ry="3" transform="translate(1848 4253.808)" fill="#1e2b3c"/>
    <ellipse id="Elipse_194-2" data-name="Elipse 194" cx="2.5" cy="3" rx="2.5" ry="3" transform="translate(1874 4253.808)" fill="#1e2b3c"/>
    <ellipse id="Elipse_195-2" data-name="Elipse 195" cx="3.5" cy="3" rx="3.5" ry="3" transform="translate(1898 4253.808)" fill="#1e2b3c"/>
  </g>
</svg>
