<svg xmlns="http://www.w3.org/2000/svg" width="61.41" height="49.896" viewBox="0 0 61.41 49.896">
  <g id="download" transform="translate(0)">
    <path id="Caminho_9426" data-name="Caminho 9426" d="M1.919,18a1.919,1.919,0,0,1,1.919,1.919V33.352a3.838,3.838,0,0,0,3.838,3.838H53.734a3.838,3.838,0,0,0,3.838-3.838V19.919a1.919,1.919,0,0,1,3.838,0V33.352a7.676,7.676,0,0,1-7.676,7.676H7.676A7.676,7.676,0,0,1,0,33.352V19.919A1.919,1.919,0,0,1,1.919,18Z" transform="translate(0 8.867)" fill="#1e2b3c" fill-rule="evenodd"/>
    <path id="Caminho_9427" data-name="Caminho 9427" d="M11.483,17.108a1.919,1.919,0,0,1,2.714,0l8.8,8.8,8.8-8.8a1.919,1.919,0,1,1,2.714,2.714L24.355,29.981a1.919,1.919,0,0,1-2.717,0L11.483,19.822a1.919,1.919,0,0,1,0-2.714Z" transform="translate(7.708 7.84)" fill="#1e2b3c" fill-rule="evenodd"/>
    <path id="Caminho_9428" data-name="Caminho 9428" d="M18.794,2.25a1.919,1.919,0,0,1,1.919,1.919v30.7a1.919,1.919,0,0,1-3.838,0V4.169A1.919,1.919,0,0,1,18.794,2.25Z" transform="translate(11.911 -2.25)" fill="#1e2b3c" fill-rule="evenodd"/>
  </g>
</svg>
