<svg id="Grupo_4039" data-name="Grupo 4039" xmlns="http://www.w3.org/2000/svg" xmlns:xlink="http://www.w3.org/1999/xlink" width="206" height="63.784" viewBox="0 0 206 63.784">
  <defs>
    <linearGradient id="linear-gradient" x1="0.807" y1="0.5" x2="-1.573" y2="0.5" gradientUnits="objectBoundingBox">
      <stop offset="0" stop-color="gold"/>
      <stop offset="0.075" stop-color="#fece00"/>
      <stop offset="0.48" stop-color="#fca704"/>
      <stop offset="0.803" stop-color="#fa8e07"/>
      <stop offset="1" stop-color="#fa8608"/>
    </linearGradient>
    <linearGradient id="linear-gradient-2" x1="0.862" y1="0.178" x2="-0.501" y2="1.948" gradientUnits="objectBoundingBox">
      <stop offset="0" stop-color="#e82b36"/>
      <stop offset="1" stop-color="#b4005a"/>
    </linearGradient>
    <linearGradient id="linear-gradient-3" x1="-0.508" y1="-0.956" x2="0.606" y2="0.489" gradientUnits="objectBoundingBox">
      <stop offset="0" stop-color="#2f8e5b"/>
      <stop offset="0.39" stop-color="#4ea157"/>
      <stop offset="0.768" stop-color="#67b054"/>
      <stop offset="1" stop-color="#70b653"/>
    </linearGradient>
  </defs>
  <rect id="Retângulo_1364" data-name="Retângulo 1364" width="206" height="63.784" rx="8.491" transform="translate(0 0)" fill="#1e2b3c"/>
  <path id="Caminho_9263" data-name="Caminho 9263" d="M712,239.523a6.549,6.549,0,1,0,6.573,6.549A6.454,6.454,0,0,0,712,239.523Zm0,10.517a3.979,3.979,0,1,1,3.7-3.969A3.788,3.788,0,0,1,712,250.04Zm-14.339-10.517a6.549,6.549,0,1,0,6.573,6.549A6.454,6.454,0,0,0,697.661,239.523Zm0,10.517a3.979,3.979,0,1,1,3.7-3.969A3.788,3.788,0,0,1,697.661,250.04ZM680.6,241.532v2.778h6.648a5.8,5.8,0,0,1-1.513,3.5,6.806,6.806,0,0,1-5.135,2.034,7.392,7.392,0,0,1,0-14.783,7.084,7.084,0,0,1,5.011,1.984l1.96-1.959a9.691,9.691,0,0,0-6.971-2.8,10.171,10.171,0,1,0,0,20.34,9.3,9.3,0,0,0,7.095-2.853,9.179,9.179,0,0,0,2.406-6.5,9.059,9.059,0,0,0-.149-1.737Zm69.76,2.158a6.086,6.086,0,0,0-5.606-4.167,6.223,6.223,0,0,0-6.176,6.549,6.408,6.408,0,0,0,6.5,6.549,6.514,6.514,0,0,0,5.456-2.9l-2.232-1.489a3.739,3.739,0,0,1-3.224,1.811,3.332,3.332,0,0,1-3.176-1.984l8.757-3.621Zm-8.93,2.183a3.591,3.591,0,0,1,3.423-3.82,2.535,2.535,0,0,1,2.43,1.389Zm-7.119,6.35h2.878V232.974h-2.878ZM729.6,240.987h-.1a4.537,4.537,0,0,0-3.448-1.464,6.554,6.554,0,0,0,0,13.1,4.466,4.466,0,0,0,3.448-1.489h.1v.942c0,2.505-1.34,3.845-3.5,3.845a3.624,3.624,0,0,1-3.3-2.332l-2.505,1.042a6.241,6.241,0,0,0,5.8,3.87c3.374,0,6.226-1.985,6.226-6.822V239.919H729.6Zm-3.3,9.053a3.983,3.983,0,0,1,0-7.937c1.959,0,3.5,1.686,3.5,3.993A3.659,3.659,0,0,1,726.3,250.04Zm37.539-17.065h-6.884v19.248h2.872V244.93h4.012a5.987,5.987,0,1,0,0-11.955Zm.074,9.277H759.83v-6.6h4.086a3.3,3.3,0,1,1,0,6.6Zm17.755-2.764a5.394,5.394,0,0,0-5.126,2.947L779.1,243.5a2.722,2.722,0,0,1,2.625-1.411,2.766,2.766,0,0,1,3.021,2.476v.2a6.358,6.358,0,0,0-3-.743c-2.749,0-5.547,1.511-5.547,4.334,0,2.575,2.253,4.234,4.779,4.234a4.053,4.053,0,0,0,3.665-1.882h.1v1.486h2.773v-7.379C787.515,241.394,784.965,239.488,781.671,239.488Zm-.347,10.549c-.941,0-2.253-.47-2.253-1.635,0-1.485,1.634-2.055,3.046-2.055a5.125,5.125,0,0,1,2.625.644A3.483,3.483,0,0,1,781.324,250.036Zm16.294-10.128-3.294,8.345h-.1l-3.418-8.345h-3.1l5.125,11.664-2.922,6.488h3l7.9-18.151Zm-25.877,12.314h2.872V232.975h-2.872Z" transform="translate(-606.715 -204.756)" fill="#fff"/>
  <g id="Grupo_4037" data-name="Grupo 4037" transform="translate(15.733 12.285)">
    <path id="Caminho_9264" data-name="Caminho 9264" d="M601.615,211.014a3.078,3.078,0,0,0-.712,2.162V247.2a3.077,3.077,0,0,0,.712,2.161l.113.111,19.06-19.059v-.45L601.728,210.9Z" transform="translate(-600.903 -210.403)" fill="#40bff2"/>
    <path id="Caminho_9265" data-name="Caminho 9265" d="M636.1,242.49l-6.352-6.356v-.45l6.354-6.355.143.082,7.528,4.277c2.15,1.222,2.15,3.22,0,4.442l-7.528,4.277Z" transform="translate(-609.859 -216.125)" fill="url(#linear-gradient)"/>
    <path id="Caminho_9266" data-name="Caminho 9266" d="M627.606,245.371l-6.5-6.5-19.173,19.173c.709.75,1.879.843,3.2.094l22.474-12.77" transform="translate(-601.224 -219.089)" fill="url(#linear-gradient-2)"/>
    <path id="Caminho_9267" data-name="Caminho 9267" d="M627.606,223.464l-22.474-12.77c-1.318-.749-2.488-.656-3.2.094l19.173,19.173Z" transform="translate(-601.224 -210.178)" fill="url(#linear-gradient-3)"/>
  </g>
  <g id="Grupo_4038" data-name="Grupo 4038" transform="translate(66.512 10.844)">
    <path id="Caminho_9268" data-name="Caminho 9268" d="M674.552,211.154h2.457c2.825,0,4.494,1.523,4.494,4.574s-1.668,4.645-4.408,4.645h-2.543Zm2.351,7.894c1.855,0,2.921-1.055,2.921-3.32s-1.066-3.248-2.921-3.248h-.716v6.569Z" transform="translate(-674.552 -209.039)" fill="#fff"/>
    <path id="Caminho_9269" data-name="Caminho 9269" d="M686.856,210.978a1.008,1.008,0,1,1,1,.919A.927.927,0,0,1,686.856,210.978Zm.186,2.131h1.624v6.924h-1.624Z" transform="translate(-678.373 -208.699)" fill="#fff"/>
    <path id="Caminho_9270" data-name="Caminho 9270" d="M691.475,220.536l.755-1.032a3.056,3.056,0,0,0,1.912.772c.756,0,1.111-.356,1.111-.829,0-.581-.749-.84-1.489-1.122-.907-.341-1.945-.863-1.945-2.019,0-1.2.969-2.068,2.52-2.068a3.733,3.733,0,0,1,2.3.829l-.745,1a2.583,2.583,0,0,0-1.516-.6c-.7,0-1.027.332-1.027.767,0,.547.7.755,1.449,1.031.937.35,1.985.8,1.985,2.092,0,1.19-.942,2.148-2.69,2.148A4.328,4.328,0,0,1,691.475,220.536Z" transform="translate(-679.807 -209.997)" fill="#fff"/>
    <path id="Caminho_9271" data-name="Caminho 9271" d="M701.286,214.407h1.331l.124.738h.045a3.345,3.345,0,0,1,2.086-.907c1.731,0,2.723,1.387,2.723,3.523,0,2.369-1.415,3.738-2.955,3.738a2.768,2.768,0,0,1-1.782-.76l.051,1.15v2.181h-1.624Zm4.639,3.372c0-1.382-.45-2.2-1.505-2.2a2.191,2.191,0,0,0-1.511.778v3.225a2.158,2.158,0,0,0,1.386.575C705.221,220.158,705.925,219.346,705.925,217.779Z" transform="translate(-682.854 -209.997)" fill="#fff"/>
    <path id="Caminho_9272" data-name="Caminho 9272" d="M712.151,217.874a3.308,3.308,0,1,1,3.292,3.625A3.354,3.354,0,0,1,712.151,217.874Zm4.917,0c0-1.387-.609-2.312-1.624-2.312s-1.624.925-1.624,2.312.609,2.3,1.624,2.3S717.068,219.261,717.068,217.874Z" transform="translate(-686.228 -209.997)" fill="#fff"/>
    <path id="Caminho_9273" data-name="Caminho 9273" d="M724.031,214.407h1.331l.124.936h.045a3.234,3.234,0,0,1,2.273-1.1c1.482,0,2.13,1,2.13,2.751v4.342H728.31V217.2c0-1.139-.326-1.567-1.077-1.567a2.177,2.177,0,0,0-1.577.862v4.838h-1.624Z" transform="translate(-689.917 -209.997)" fill="#fff"/>
    <path id="Caminho_9274" data-name="Caminho 9274" d="M735.437,210.546l2.08-2.459,1.116,1.077-2.385,2.183Zm.023,1.951h1.624v6.924H735.46Z" transform="translate(-693.459 -208.087)" fill="#fff"/>
    <path id="Caminho_9275" data-name="Caminho 9275" d="M739.565,214.483h1.646l1.1,3.592c.192.682.394,1.392.586,2.086h.057c.192-.694.394-1.4.586-2.086l1.1-3.592h1.567l-2.351,6.924h-1.878Z" transform="translate(-694.741 -210.073)" fill="#fff"/>
    <path id="Caminho_9276" data-name="Caminho 9276" d="M750.153,217.874a3.371,3.371,0,0,1,3.191-3.636c1.872,0,2.859,1.353,2.859,3.287a4.108,4.108,0,0,1-.071.79h-4.395a1.969,1.969,0,0,0,2.041,1.928,2.952,2.952,0,0,0,1.607-.5l.552,1.009a4.288,4.288,0,0,1-2.373.749A3.342,3.342,0,0,1,750.153,217.874Zm4.646-.665c0-1.065-.474-1.714-1.421-1.714a1.738,1.738,0,0,0-1.657,1.714Z" transform="translate(-698.029 -209.997)" fill="#fff"/>
    <path id="Caminho_9277" data-name="Caminho 9277" d="M761.175,218.259v-8.176H762.8v8.26c0,.4.181.541.35.541a.947.947,0,0,0,.254-.028l.2,1.212a2.266,2.266,0,0,1-.857.141C761.6,220.209,761.175,219.465,761.175,218.259Z" transform="translate(-701.452 -208.707)" fill="#fff"/>
    <path id="Caminho_9278" data-name="Caminho 9278" d="M770.8,214.407h1.331l.124.936h.045a3.233,3.233,0,0,1,2.272-1.1c1.483,0,2.13,1,2.13,2.751v4.342h-1.624V217.2c0-1.139-.326-1.567-1.077-1.567a2.178,2.178,0,0,0-1.578.862v4.838H770.8Z" transform="translate(-704.44 -209.997)" fill="#fff"/>
    <path id="Caminho_9279" data-name="Caminho 9279" d="M781.7,219.47c0-1.483,1.229-2.256,4.071-2.56-.022-.744-.321-1.364-1.258-1.364a3.823,3.823,0,0,0-1.945.683l-.6-1.083a5.4,5.4,0,0,1,2.842-.907c1.731,0,2.582,1.066,2.582,2.994v4.1h-1.33l-.124-.767h-.045a3.344,3.344,0,0,1-2.148.936A1.939,1.939,0,0,1,781.7,219.47Zm4.071.006v-1.557c-1.877.238-2.5.727-2.5,1.426,0,.613.418.88,1,.88A2.182,2.182,0,0,0,785.766,219.476Z" transform="translate(-707.824 -209.997)" fill="#fff"/>
  </g>
</svg>
