<svg id="Grupo_4184" data-name="Grupo 4184" xmlns="http://www.w3.org/2000/svg" width="60" height="60" viewBox="0 0 60 60">
  <path id="twitter" d="M21.727,5.118a5.839,5.839,0,0,1-.811,1.162,5.989,5.989,0,0,1-1.465,1.235q.024.194.036.363a13.183,13.183,0,0,1-.932,5.05,13.3,13.3,0,0,1-5.292,6.576,13.915,13.915,0,0,1-8.284,1.514A9.512,9.512,0,0,1,0,19.094,9.275,9.275,0,0,0,6.637,17.18a4.572,4.572,0,0,1-4.214-3.124,2.834,2.834,0,0,0,.945.048,8.788,8.788,0,0,0,1.066-.145,5,5,0,0,1-3.028-2.35A5.065,5.065,0,0,1,.9,9.381a4.256,4.256,0,0,0,2.01.605A5.194,5.194,0,0,1,.932,6.777a5.943,5.943,0,0,1,.545-2.895A15.223,15.223,0,0,0,6.649,7.757a10.713,10.713,0,0,0,4.057.848,5.422,5.422,0,0,1,.545-3.44,4.686,4.686,0,0,1,2.8-2.035A4.129,4.129,0,0,1,18.19,4.415a7.373,7.373,0,0,0,2.882-1.066,4.373,4.373,0,0,1-1.986,2.567,12.6,12.6,0,0,0,2.64-.8Z" transform="translate(19.137 17.948)" fill="#1e2b3c" opacity="0.497"/>
  <circle id="Elipse_106" data-name="Elipse 106" cx="30" cy="30" r="30" fill="#1e2b3c" opacity="0.152"/>
</svg>
