<svg xmlns="http://www.w3.org/2000/svg" width="45.555" height="35.268" viewBox="0 0 45.555 35.268">
  <path id="_2790260" data-name="2790260" d="M46.166,19.843,24.123,8.087a.734.734,0,0,0-.691,0L1.389,19.843a.734.734,0,0,0,0,1.3l6.224,3.32v9.258h1.47V25.243l2.2,1.176v4.464A2.911,2.911,0,0,0,9.7,35.5a15.007,15.007,0,0,0-.616,4.217V41.8a.736.736,0,0,0,.406.658l.812.406a3.85,3.85,0,0,0,3.442,0l.812-.406a.734.734,0,0,0,.406-.657V39.713a15.007,15.007,0,0,0-.616-4.217,2.911,2.911,0,0,0-1.589-4.614V27.2L23.431,32.9a.74.74,0,0,0,.692,0l14.349-7.653v8.111a23.8,23.8,0,0,1-14.255,4.771h-.88a23.643,23.643,0,0,1-7.413-1.19l-.459,1.4a25.111,25.111,0,0,0,7.871,1.264h.879a25.272,25.272,0,0,0,15.442-5.3.735.735,0,0,0,.284-.58V24.459l6.224-3.32a.735.735,0,0,0,0-1.3Zm-32.675,21.5-.406.2a2.419,2.419,0,0,1-2.127,0l-.406-.2V39.713a13.539,13.539,0,0,1,.4-3.267,2.847,2.847,0,0,0,2.14,0,13.539,13.539,0,0,1,.4,3.267Zm0-7.628a1.47,1.47,0,1,1-1.47-1.47A1.471,1.471,0,0,1,13.491,33.716Zm10.287-2.3L13.262,25.805l9.1-4.855a3.733,3.733,0,0,0,1.413.275c1.648,0,2.939-.968,2.939-2.2s-1.291-2.2-2.939-2.2-2.939.968-2.939,2.2a1.781,1.781,0,0,0,.274.932L11.7,24.973,3.3,20.491,23.777,9.567,44.259,20.491Zm-1.47-12.392c0-.3.572-.735,1.47-.735s1.47.435,1.47.735-.572.735-1.47.735S22.308,19.321,22.308,19.021Z" transform="translate(-1 -8)" fill="#fff"/>
</svg>
