<svg id="_1129871" data-name="1129871" xmlns="http://www.w3.org/2000/svg" width="45.552" height="58.838" viewBox="0 0 45.552 58.838">
  <path id="Caminho_9441" data-name="Caminho 9441" d="M42.442,20.617a4.687,4.687,0,0,0-.544,2.159A4.741,4.741,0,0,0,44.979,27.2a3.742,3.742,0,0,0-.234,1.266,3.77,3.77,0,0,0,5.134,3.541,3.787,3.787,0,0,0,7.2-1.643V3.8a3.787,3.787,0,0,0-7.2-1.643,3.761,3.761,0,0,0-4.9,4.807A4.741,4.741,0,0,0,41.9,11.388a4.687,4.687,0,0,0,.544,2.159,3.78,3.78,0,0,0,0,7.07ZM43.8,15.184V15.16a4.7,4.7,0,0,0,2.847.974,4.751,4.751,0,0,0,4.745-4.745h-1.9a2.847,2.847,0,1,1-3.369-2.794,3.76,3.76,0,0,0,2.42.9v-1.9a1.9,1.9,0,1,1,1.9-1.9h1.9A3.759,3.759,0,0,0,51.462,3.3a1.893,1.893,0,0,1,3.722.5V30.368a1.893,1.893,0,0,1-3.722.5,3.759,3.759,0,0,0,.875-2.394h-1.9a1.9,1.9,0,1,1-1.9-1.9v-1.9a3.76,3.76,0,0,0-2.42.9,2.845,2.845,0,1,1,3.369-2.794h1.9a4.751,4.751,0,0,0-4.745-4.745A4.7,4.7,0,0,0,43.8,19V18.98a1.9,1.9,0,1,1,0-3.8Zm0,0" transform="translate(-35.255)" fill="#fff"/>
  <path id="Caminho_9442" data-name="Caminho 9442" d="M203.8,34.164a3.789,3.789,0,0,0,3.407-2.153,3.761,3.761,0,0,0,4.9-4.807,4.741,4.741,0,0,0,3.081-4.428,4.687,4.687,0,0,0-.544-2.159,3.78,3.78,0,0,0,0-7.07,4.687,4.687,0,0,0,.544-2.159A4.741,4.741,0,0,0,212.1,6.96a3.742,3.742,0,0,0,.234-1.266A3.77,3.77,0,0,0,207.2,2.153,3.787,3.787,0,0,0,200,3.8V30.368A3.8,3.8,0,0,0,203.8,34.164ZM201.9,3.8a1.893,1.893,0,0,1,3.722-.5,3.759,3.759,0,0,0-.875,2.394h1.9a1.9,1.9,0,1,1,1.9,1.9v1.9a3.76,3.76,0,0,0,2.42-.9,2.845,2.845,0,1,1-3.369,2.794h-1.9a4.751,4.751,0,0,0,4.745,4.745,4.7,4.7,0,0,0,2.847-.974v.025a1.9,1.9,0,0,1,0,3.8V19a4.7,4.7,0,0,0-2.847-.974,4.751,4.751,0,0,0-4.745,4.745h1.9a2.847,2.847,0,1,1,3.369,2.794,3.76,3.76,0,0,0-2.42-.9v1.9a1.9,1.9,0,1,1-1.9,1.9h-1.9a3.759,3.759,0,0,0,.875,2.394,1.893,1.893,0,0,1-3.722-.5Zm0,0" transform="translate(-176.275)" fill="#fff"/>
  <path id="Caminho_9443" data-name="Caminho 9443" d="M42.6,298.2a3.773,3.773,0,0,0,1.05-2.607v-1.9a3.8,3.8,0,0,0-7.592,0v1.9a3.773,3.773,0,0,0,1.05,2.607,5.7,5.7,0,0,0-2.948,4.985v1.9H28.138A5.721,5.721,0,0,0,25.523,302a3.777,3.777,0,0,0,1.05-2.607v-1.9a3.79,3.79,0,0,0-2.847-3.661V288h-1.9v5.829a3.79,3.79,0,0,0-2.847,3.661v1.9A3.773,3.773,0,0,0,20.031,302a5.719,5.719,0,0,0-2.616,3.087H11.388v-1.9A5.7,5.7,0,0,0,8.44,298.2a3.773,3.773,0,0,0,1.05-2.607v-1.9a3.8,3.8,0,0,0-7.592,0v1.9a3.773,3.773,0,0,0,1.05,2.607A5.7,5.7,0,0,0,0,303.184v4.745a.948.948,0,0,0,.949.949h9.49a.948.948,0,0,0,.949-.949v-.949h5.694v4.745a.948.948,0,0,0,.949.949h9.49a.948.948,0,0,0,.949-.949V306.98h5.694v.949a.948.948,0,0,0,.949.949H44.6a.948.948,0,0,0,.949-.949v-4.745A5.7,5.7,0,0,0,42.6,298.2ZM3.8,295.592v-1.9a1.9,1.9,0,0,1,3.8,0v1.9a1.9,1.9,0,0,1-3.8,0ZM9.49,306.98H1.9v-3.8a3.8,3.8,0,0,1,7.592,0Zm11.388-7.592v-1.9a1.9,1.9,0,0,1,3.8,0v1.9a1.9,1.9,0,0,1-3.8,0Zm5.694,11.388H18.98v-3.8a3.8,3.8,0,1,1,7.592,0ZM37.96,295.592v-1.9a1.9,1.9,0,0,1,3.8,0v1.9a1.9,1.9,0,0,1-3.8,0Zm5.694,11.388H36.062v-3.8a3.8,3.8,0,0,1,7.592,0Zm0,0" transform="translate(0 -253.836)" fill="#fff"/>
</svg>
