<svg xmlns="http://www.w3.org/2000/svg" width="60" height="60" viewBox="0 0 60 60">
  <g id="Grupo_4025" data-name="Grupo 4025" transform="translate(-7334 389)">
    <circle id="Elipse_105" data-name="Elipse 105" cx="30" cy="30" r="30" transform="translate(7334 -389)" fill="#007eff" opacity="0.152"/>
    <g id="logo-google-playstore-outline" transform="translate(7351.339 -371.25)">
      <path id="Caminho_9224" data-name="Caminho 9224" d="M3.375,4.072V21.617a.193.193,0,0,0,.329.137l9.135-8.909L3.7,3.935a.193.193,0,0,0-.329.137Z" transform="translate(0 -0.595)" fill="#007eff"/>
      <path id="Caminho_9225" data-name="Caminho 9225" d="M17.56,8.589,6.105,2.279l-.007,0a.2.2,0,0,0-.223.315l8.979,8.585Z" transform="translate(-0.89)" fill="#007eff"/>
      <path id="Caminho_9226" data-name="Caminho 9226" d="M5.876,28.278a.2.2,0,0,0,.223.315l.007,0,11.453-6.31-2.706-2.587Z" transform="translate(-0.891 -6.367)" fill="#007eff"/>
      <path id="Caminho_9227" data-name="Caminho 9227" d="M28.028,15.229l-3.2-1.762-3.008,2.878,3.008,2.876,3.2-1.76a1.281,1.281,0,0,0,0-2.232Z" transform="translate(-6.735 -4.095)" fill="#007eff"/>
    </g>
  </g>
</svg>
