<svg xmlns="http://www.w3.org/2000/svg" width="60" height="60" viewBox="0 0 60 60">
  <g id="Grupo_4186" data-name="Grupo 4186" transform="translate(-0.333)">
    <path id="youtube" d="M10.454,16.544V11.265l5.075,2.649ZM21.6,10.351a4.055,4.055,0,0,0-.747-1.866,2.689,2.689,0,0,0-1.883-.8C16.342,7.5,12.4,7.5,12.4,7.5H12.39s-3.944,0-6.573.19a2.689,2.689,0,0,0-1.883.8,4.063,4.063,0,0,0-.747,1.866A28.422,28.422,0,0,0,3,13.392v1.425a28.438,28.438,0,0,0,.188,3.041,4.056,4.056,0,0,0,.747,1.865,3.179,3.179,0,0,0,2.072.8c1.5.143,6.388.188,6.388.188s3.949-.006,6.577-.2a2.688,2.688,0,0,0,1.883-.8,4.062,4.062,0,0,0,.747-1.865,28.438,28.438,0,0,0,.188-3.041V13.392a28.407,28.407,0,0,0-.188-3.041Z" transform="translate(17.605 15.894)" fill="#1e2b3c" fill-rule="evenodd" opacity="0.497"/>
    <circle id="Elipse_196" data-name="Elipse 196" cx="30" cy="30" r="30" transform="translate(0.333)" fill="#1e2b3c" opacity="0.152"/>
  </g>
</svg>
