<svg xmlns="http://www.w3.org/2000/svg" width="60" height="60" viewBox="0 0 60 60">
  <g id="Grupo_4185" data-name="Grupo 4185" transform="translate(0.333)">
    <path id="instagram" d="M13.028,3c-2.723,0-3.064.012-4.134.06a7.38,7.38,0,0,0-2.434.467A5.125,5.125,0,0,0,3.526,6.459a7.394,7.394,0,0,0-.467,2.434C3.011,9.963,3,10.3,3,13.028s.011,3.064.06,4.134A7.38,7.38,0,0,0,3.527,19.6,5.123,5.123,0,0,0,6.46,22.529,7.394,7.394,0,0,0,8.894,23c1.07.048,1.411.06,4.134.06s3.064-.012,4.134-.06a7.38,7.38,0,0,0,2.434-.467A5.123,5.123,0,0,0,22.53,19.6,7.394,7.394,0,0,0,23,17.162c.048-1.07.06-1.411.06-4.134S23.044,9.963,23,8.894a7.38,7.38,0,0,0-.467-2.434A5.123,5.123,0,0,0,19.6,3.526a7.394,7.394,0,0,0-2.434-.467C16.092,3.012,15.751,3,13.028,3m0,1.807c2.677,0,2.994.01,4.051.058a5.571,5.571,0,0,1,1.863.345,3.319,3.319,0,0,1,1.9,1.9,5.565,5.565,0,0,1,.345,1.862c.048,1.058.058,1.374.058,4.052s-.01,2.994-.058,4.051a5.606,5.606,0,0,1-.345,1.863,3.319,3.319,0,0,1-1.9,1.9,5.565,5.565,0,0,1-1.862.345c-1.057.048-1.374.058-4.052.058s-3-.01-4.051-.058a5.606,5.606,0,0,1-1.863-.345,3.319,3.319,0,0,1-1.9-1.9,5.53,5.53,0,0,1-.345-1.862c-.048-1.058-.058-1.374-.058-4.052s.01-2.994.058-4.051A5.571,5.571,0,0,1,5.21,7.113a3.319,3.319,0,0,1,1.9-1.9,5.53,5.53,0,0,1,1.862-.345c1.058-.048,1.374-.058,4.052-.058m0,11.563a3.342,3.342,0,1,1,3.343-3.342,3.342,3.342,0,0,1-3.343,3.342m0-8.491a5.149,5.149,0,1,0,5.149,5.149,5.149,5.149,0,0,0-5.149-5.149m6.556-.2a1.2,1.2,0,1,1-1.2-1.2,1.2,1.2,0,0,1,1.2,1.2" transform="translate(16.972 16.973)" fill="#1e2b3c" fill-rule="evenodd" opacity="0.497"/>
    <circle id="Elipse_105" data-name="Elipse 105" cx="30" cy="30" r="30" transform="translate(-0.333)" fill="#1e2b3c" opacity="0.152"/>
  </g>
</svg>
