<svg xmlns="http://www.w3.org/2000/svg" width="60" height="60" viewBox="0 0 60 60">
  <g id="Grupo_4026" data-name="Grupo 4026" transform="translate(-7247 389)">
    <circle id="Elipse_106" data-name="Elipse 106" cx="30" cy="30" r="30" transform="translate(7247 -389)" fill="#007eff" opacity="0.152"/>
    <path id="applepay" d="M13.609,14.483a4.554,4.554,0,0,1-3.667,1.75,5.287,5.287,0,0,1,1.309-3.839A5.466,5.466,0,0,1,14.887,10.5,5.62,5.62,0,0,1,13.609,14.483Zm1.262,2.029c-2.021-.118-3.754,1.164-4.709,1.164-.978,0-2.445-1.1-4.045-1.073A5.968,5.968,0,0,0,1.042,19.72c-2.182,3.791-.567,9.41,1.541,12.5,1.034,1.53,2.271,3.2,3.9,3.146,1.539-.058,2.149-1.015,4.01-1.015s2.414,1.015,4.045.987c1.686-.031,2.747-1.53,3.779-3.059A13.445,13.445,0,0,0,20,28.758a5.532,5.532,0,0,1-3.288-5.042,5.657,5.657,0,0,1,2.662-4.734,5.743,5.743,0,0,0-4.507-2.474Z" transform="translate(7266.996 -381.932)" fill="#007eff"/>
  </g>
</svg>
