<svg id="_2075522" data-name="2075522" xmlns="http://www.w3.org/2000/svg" width="45.552" height="45.552" viewBox="0 0 45.552 45.552">
  <path id="Caminho_9444" data-name="Caminho 9444" d="M45.818,8.347H37.736V1.735A.734.734,0,0,0,37,1H1.735A.734.734,0,0,0,1,1.735V41.409a5.15,5.15,0,0,0,5.143,5.143H41.409a5.15,5.15,0,0,0,5.143-5.143V9.082A.734.734,0,0,0,45.818,8.347ZM6.143,45.083a3.678,3.678,0,0,1-3.674-3.674V2.469h33.8v38.94a5.128,5.128,0,0,0,1.547,3.674Zm38.94-3.674a3.674,3.674,0,0,1-7.347,0V9.817h7.347Z" transform="translate(-1 -1)" fill="#fff"/>
  <path id="Caminho_9445" data-name="Caminho 9445" d="M5,37H19.694v1.469H5Z" transform="translate(-2.061 -10.55)" fill="#fff"/>
  <path id="Caminho_9446" data-name="Caminho 9446" d="M5,41H19.694v1.469H5Z" transform="translate(-2.061 -11.611)" fill="#fff"/>
  <path id="Caminho_9447" data-name="Caminho 9447" d="M5,45H19.694v1.469H5Z" transform="translate(-2.061 -12.673)" fill="#fff"/>
  <path id="Caminho_9448" data-name="Caminho 9448" d="M5,49H19.694v1.469H5Z" transform="translate(-2.061 -13.734)" fill="#fff"/>
  <path id="Caminho_9449" data-name="Caminho 9449" d="M29,17H42.225v1.469H29Z" transform="translate(-8.428 -5.245)" fill="#fff"/>
  <path id="Caminho_9450" data-name="Caminho 9450" d="M29,21H42.225v1.469H29Z" transform="translate(-8.428 -6.306)" fill="#fff"/>
  <path id="Caminho_9451" data-name="Caminho 9451" d="M29,25H42.225v1.469H29Z" transform="translate(-8.428 -7.367)" fill="#fff"/>
  <path id="Caminho_9452" data-name="Caminho 9452" d="M29,29H42.225v1.469H29Z" transform="translate(-8.428 -8.428)" fill="#fff"/>
  <path id="Caminho_9453" data-name="Caminho 9453" d="M33,41H43.286v1.469H33Z" transform="translate(-9.489 -11.611)" fill="#fff"/>
  <path id="Caminho_9454" data-name="Caminho 9454" d="M33,37H43.286v1.469H33Z" transform="translate(-9.489 -10.55)" fill="#fff"/>
  <path id="Caminho_9455" data-name="Caminho 9455" d="M33,45H43.286v1.469H33Z" transform="translate(-9.489 -12.673)" fill="#fff"/>
  <path id="Caminho_9456" data-name="Caminho 9456" d="M33,49H43.286v1.469H33Z" transform="translate(-9.489 -13.734)" fill="#fff"/>
  <path id="Caminho_9457" data-name="Caminho 9457" d="M20.429,5H5.735A.734.734,0,0,0,5,5.735V20.429a.734.734,0,0,0,.735.735H20.429a.734.734,0,0,0,.735-.735V5.735A.734.734,0,0,0,20.429,5ZM16.021,19.694H10.143V18.225a2.939,2.939,0,1,1,5.878,0Zm3.674,0h-2.2V18.225a4.408,4.408,0,1,0-8.817,0v1.469h-2.2V6.469H19.694Z" transform="translate(-2.061 -2.061)" fill="#fff"/>
  <path id="Caminho_9458" data-name="Caminho 9458" d="M17.878,11.939a2.939,2.939,0,1,0-2.939,2.939A2.942,2.942,0,0,0,17.878,11.939Zm-2.939,1.469a1.469,1.469,0,1,1,1.469-1.469A1.471,1.471,0,0,1,14.939,13.408Z" transform="translate(-3.918 -3.122)" fill="#fff"/>
</svg>
