<svg id="_2398663" data-name="2398663" xmlns="http://www.w3.org/2000/svg" width="45.553" height="45.553" viewBox="0 0 45.553 45.553">
  <path id="Caminho_9459" data-name="Caminho 9459" d="M43.274,23.655a4.4,4.4,0,0,0-2.183-7.939A19.106,19.106,0,0,0,28.174,5.192a4.4,4.4,0,0,0-8.795,0A19.11,19.11,0,0,0,6.462,15.716a4.4,4.4,0,0,0-2.183,7.939A5.88,5.88,0,0,0,1,28.92v2.2a.735.735,0,0,0,.735.735H6.472A19.27,19.27,0,0,0,18.124,42.022a5.841,5.841,0,0,0-.226,1.592v2.2a.735.735,0,0,0,.735.735H28.92a.735.735,0,0,0,.735-.735v-2.2a5.87,5.87,0,0,0-.225-1.592A19.271,19.271,0,0,0,41.082,31.859h4.737a.735.735,0,0,0,.735-.735v-2.2A5.88,5.88,0,0,0,43.274,23.655Zm.34-3.552a2.939,2.939,0,1,1-2.939-2.939A2.942,2.942,0,0,1,43.614,20.1ZM23.777,2.469a2.939,2.939,0,1,1-2.939,2.939A2.942,2.942,0,0,1,23.777,2.469ZM3.939,20.1a2.939,2.939,0,1,1,2.939,2.939A2.942,2.942,0,0,1,3.939,20.1ZM2.469,28.92a4.408,4.408,0,1,1,8.817,0v1.469H2.469ZM28.185,45.084H19.368V43.614a4.408,4.408,0,1,1,8.817,0ZM20.838,34.8a2.939,2.939,0,1,1,2.939,2.939A2.942,2.942,0,0,1,20.838,34.8Zm8.013,5.864a5.907,5.907,0,0,0-2.475-2.311,4.408,4.408,0,1,0-5.2,0A5.916,5.916,0,0,0,18.7,40.661a17.79,17.79,0,0,1-10.6-8.8h3.916a.735.735,0,0,0,.735-.735v-2.2a5.88,5.88,0,0,0-3.279-5.264,4.4,4.4,0,0,0-1.454-7.8A17.642,17.642,0,0,1,19.551,6.66a4.419,4.419,0,0,0,1.626,2.3A5.878,5.878,0,0,0,17.9,14.225v2.2a.735.735,0,0,0,.735.735H28.92a.735.735,0,0,0,.735-.735v-2.2a5.88,5.88,0,0,0-3.279-5.264A4.423,4.423,0,0,0,28,6.66,17.636,17.636,0,0,1,39.53,15.85a4.4,4.4,0,0,0-1.453,7.805A5.88,5.88,0,0,0,34.8,28.92v2.2a.735.735,0,0,0,.735.735h3.916a17.792,17.792,0,0,1-10.6,8.8ZM23.777,9.817a4.413,4.413,0,0,1,4.408,4.408v1.469H19.368V14.225a4.413,4.413,0,0,1,4.408-4.408ZM45.084,30.389H36.267V28.92a4.408,4.408,0,1,1,8.817,0Z" transform="translate(-1 -1)" fill="#fff"/>
  <text id="_" data-name="$" transform="translate(22.68 25.404)" fill="#fff" font-size="10" font-family="Roboto-Regular, Roboto"><tspan x="-2.808" y="0">$</tspan></text>
</svg>
