<svg xmlns="http://www.w3.org/2000/svg" width="206" height="75.171" viewBox="0 0 206 75.171">
  <g id="Grupo_4128" data-name="Grupo 4128" transform="translate(-320.73 -498.092)">
    <g id="Grupo_4132" data-name="Grupo 4132" transform="translate(320.73 498.091)">
      <g id="Grupo_4128-2" data-name="Grupo 4128">
        <path id="Caminho_9332" data-name="Caminho 9332" d="M19.341,0H53.187A19.341,19.341,0,0,1,72.527,19.341V53.187A19.341,19.341,0,0,1,53.187,72.527H19.341A19.341,19.341,0,0,1,0,53.187V19.341A19.341,19.341,0,0,1,19.341,0Z" fill="#007eff"/>
      </g>
      <g id="Grupo_4131" data-name="Grupo 4131" transform="translate(11.383 19.873)">
        <g id="Grupo_4129" data-name="Grupo 4129" transform="translate(27.536)">
          <path id="Caminho_9318" data-name="Caminho 9318" d="M427.2,578.145a7.744,7.744,0,0,0,4.183,5.27c1.938.915,4.9,1.34,8.957,1.34h3.034a5.1,5.1,0,0,0,5.1-5.1h0a.526.526,0,0,0-.527-.527h-6.583c-3.89,0-5.143-.379-5.944-.686a3.485,3.485,0,0,1-1.9-2.633,27.994,27.994,0,0,1-.727-7.419,29.389,29.389,0,0,1,.727-7.57,3.387,3.387,0,0,1,1.895-2.581c.8-.307,2.052-.628,5.944-.628h1.993a5.092,5.092,0,0,0,5.092-5.092h0a.518.518,0,0,0-.516-.517h-.614c-9.236,0-5.717-.023-6.949-.023-4.06,0-6.883.444-8.821,1.359a7.975,7.975,0,0,0-4.343,5.265c-.638,2.331-.957,4.836-.957,9.786C426.253,573.3,426.563,575.8,427.2,578.145Z" transform="translate(-426.253 -551.974)" fill="#fff"/>
        </g>
        <g id="Grupo_4130" data-name="Grupo 4130">
          <path id="Caminho_9319" data-name="Caminho 9319" d="M375.89,551.974H352.613a1.019,1.019,0,0,0-1.019,1.019v3.793a1.019,1.019,0,0,0,1.019,1.019h7.4v25.93a1.019,1.019,0,0,0,1.019,1.019h0a5.682,5.682,0,0,0,5.682-5.682V558.307a.5.5,0,0,1,.5-.5h4.406a5.315,5.315,0,0,0,5.284-4.749A1,1,0,0,0,375.89,551.974Z" transform="translate(-351.594 -551.974)" fill="#fff"/>
        </g>
      </g>
    </g>
    <g id="Grupo_4133" data-name="Grupo 4133" transform="translate(415.624 516.164)">
      <path id="Caminho_9320" data-name="Caminho 9320" d="M590.066,571.5h-7.7v13.261h-4.345V551.977h10.852q5.538,0,8.522,2.522t2.983,7.339a8.824,8.824,0,0,1-1.655,5.336,9.877,9.877,0,0,1-4.6,3.4l7.7,13.914v.27H597.18Zm-7.7-3.535h6.642a7.491,7.491,0,0,0,5.122-1.669,5.644,5.644,0,0,0,1.9-4.466,5.942,5.942,0,0,0-1.812-4.668,7.672,7.672,0,0,0-5.234-1.647h-6.619Z" transform="translate(-578.021 -550.176)" fill="#838b96"/>
      <path id="Caminho_9321" data-name="Caminho 9321" d="M667.132,581.753a8.732,8.732,0,0,1-.585-2.567,9.293,9.293,0,0,1-6.934,3.017,8.6,8.6,0,0,1-5.91-2.038A6.59,6.59,0,0,1,651.4,575a6.887,6.887,0,0,1,2.893-5.91q2.893-2.1,8.139-2.1h4.053v-1.914a4.679,4.679,0,0,0-1.306-3.478,5.249,5.249,0,0,0-3.85-1.295,6.076,6.076,0,0,0-3.738,1.126,3.318,3.318,0,0,0-1.508,2.724H651.89a5.744,5.744,0,0,1,1.295-3.523,8.833,8.833,0,0,1,3.512-2.691,11.813,11.813,0,0,1,4.874-.991,9.632,9.632,0,0,1,6.6,2.105,7.6,7.6,0,0,1,2.477,5.8v11.212a13.706,13.706,0,0,0,.856,5.336v.36Zm-6.912-3.175a7.321,7.321,0,0,0,3.715-1.013,6.131,6.131,0,0,0,2.544-2.634v-5h-3.264q-7.655,0-7.655,4.48a3.792,3.792,0,0,0,1.306,3.062A5.019,5.019,0,0,0,660.22,578.578Zm3.85-31.362h5.043l-6.034,6.619-3.354-.011Z" transform="translate(-624.333 -547.171)" fill="#838b96"/>
      <path id="Caminho_9322" data-name="Caminho 9322" d="M718.543,569.292a14.27,14.27,0,0,1,2.657-9.017,9.038,9.038,0,0,1,13.733-.484v-12.7H739.1v34.582h-3.827l-.2-2.612a8.481,8.481,0,0,1-6.957,3.062,8.32,8.32,0,0,1-6.9-3.467,14.434,14.434,0,0,1-2.668-9.051Zm4.165.472a10.8,10.8,0,0,0,1.711,6.484,5.53,5.53,0,0,0,4.728,2.342,6.076,6.076,0,0,0,5.786-3.557v-11.19a6.124,6.124,0,0,0-5.741-3.445,5.558,5.558,0,0,0-4.773,2.364Q722.708,565.127,722.708,569.765Z" transform="translate(-666.716 -547.093)" fill="#838b96"/>
      <path id="Caminho_9323" data-name="Caminho 9323" d="M791.856,553.165a2.484,2.484,0,0,1,.619-1.711,2.325,2.325,0,0,1,1.835-.7,2.362,2.362,0,0,1,1.846.7,2.46,2.46,0,0,1,.63,1.711,2.381,2.381,0,0,1-.63,1.689,2.4,2.4,0,0,1-1.846.675,2.367,2.367,0,0,1-1.835-.675A2.4,2.4,0,0,1,791.856,553.165Zm4.5,30.822h-4.165v-24.36h4.165Z" transform="translate(-712.99 -549.405)" fill="#838b96"/>
      <path id="Caminho_9324" data-name="Caminho 9324" d="M819.142,585.992a14.387,14.387,0,0,1,1.407-6.439,10.5,10.5,0,0,1,3.918-4.413,10.667,10.667,0,0,1,5.73-1.553,10.273,10.273,0,0,1,8.048,3.445,13.252,13.252,0,0,1,3.073,9.163v.292a14.517,14.517,0,0,1-1.362,6.383,10.34,10.34,0,0,1-3.9,4.4,10.782,10.782,0,0,1-5.82,1.576,10.249,10.249,0,0,1-8.027-3.445,13.188,13.188,0,0,1-3.073-9.118Zm4.188.495a10.419,10.419,0,0,0,1.88,6.507,6.37,6.37,0,0,0,10.075-.034,11.4,11.4,0,0,0,1.869-6.968,10.4,10.4,0,0,0-1.9-6.5,6.05,6.05,0,0,0-5.054-2.488,5.98,5.98,0,0,0-4.976,2.454Q823.329,581.916,823.33,586.487Z" transform="translate(-730.212 -563.815)" fill="#838b96"/>
    </g>
    <g id="Grupo_4134" data-name="Grupo 4134" transform="translate(416.477 561.324)">
      <path id="Caminho_9325" data-name="Caminho 9325" d="M585.878,675.632a3.891,3.891,0,0,1-.69,2.411,2.2,2.2,0,0,1-1.852.911,2.283,2.283,0,0,1-1.918-.877l-.054.756h-1.029v-9.295h1.119v3.468a2.269,2.269,0,0,1,1.87-.841,2.217,2.217,0,0,1,1.873.9,4.009,4.009,0,0,1,.681,2.469Zm-1.119-.127a3.024,3.024,0,0,0-.442-1.767,1.462,1.462,0,0,0-1.271-.623,1.643,1.643,0,0,0-1.592,1.029v2.832a1.69,1.69,0,0,0,1.6,1.029,1.455,1.455,0,0,0,1.253-.623A3.219,3.219,0,0,0,584.758,675.5Z" transform="translate(-580.335 -669.538)" fill="#838b96"/>
      <path id="Caminho_9326" data-name="Caminho 9326" d="M599.925,681.895l1.525-4.907h1.2l-2.632,7.557q-.611,1.634-1.942,1.634l-.212-.018-.418-.079v-.908l.3.024a1.491,1.491,0,0,0,.886-.23,1.66,1.66,0,0,0,.523-.841l.248-.666-2.336-6.474h1.222Z" transform="translate(-590.897 -674.24)" fill="#838b96"/>
      <path id="Caminho_9327" data-name="Caminho 9327" d="M625.2,670.851l2.88,7.189,2.88-7.189h1.507v8.811H631.3v-3.431l.109-3.7-2.892,7.134h-.89l-2.886-7.116.115,3.685v3.431H623.7v-8.811Z" transform="translate(-607.704 -670.367)" fill="#838b96"/>
      <path id="Caminho_9328" data-name="Caminho 9328" d="M651.751,679.994a3.865,3.865,0,0,1,.378-1.73,2.822,2.822,0,0,1,1.053-1.186,2.868,2.868,0,0,1,1.54-.417,2.761,2.761,0,0,1,2.164.925,3.563,3.563,0,0,1,.826,2.463v.078a3.9,3.9,0,0,1-.366,1.715,2.777,2.777,0,0,1-1.047,1.183,2.9,2.9,0,0,1-1.564.424,2.754,2.754,0,0,1-2.157-.926,3.542,3.542,0,0,1-.826-2.451Zm1.126.133a2.8,2.8,0,0,0,.505,1.749,1.712,1.712,0,0,0,2.707-.009,3.062,3.062,0,0,0,.5-1.873,2.8,2.8,0,0,0-.511-1.746,1.625,1.625,0,0,0-1.359-.668,1.606,1.606,0,0,0-1.337.659A3.04,3.04,0,0,0,652.877,680.127Z" transform="translate(-625.411 -674.033)" fill="#838b96"/>
      <path id="Caminho_9329" data-name="Caminho 9329" d="M672.523,682.016l1.622-5.028h1.144l-2.348,6.547h-.853l-2.372-6.547h1.144Z" transform="translate(-636.751 -674.24)" fill="#838b96"/>
      <path id="Caminho_9330" data-name="Caminho 9330" d="M689.763,683.449a2.861,2.861,0,0,1-2.166-.875,3.244,3.244,0,0,1-.835-2.339v-.205a3.927,3.927,0,0,1,.372-1.74,2.906,2.906,0,0,1,1.041-1.2,2.616,2.616,0,0,1,1.449-.432,2.451,2.451,0,0,1,1.985.841,3.641,3.641,0,0,1,.708,2.408v.466h-4.435a2.327,2.327,0,0,0,.566,1.564,1.778,1.778,0,0,0,1.376.6,1.949,1.949,0,0,0,1-.242,2.523,2.523,0,0,0,.72-.641l.684.532A2.749,2.749,0,0,1,689.763,683.449Zm-.139-5.869a1.493,1.493,0,0,0-1.137.493,2.4,2.4,0,0,0-.569,1.383h3.28v-.085a2.132,2.132,0,0,0-.46-1.322A1.407,1.407,0,0,0,689.624,677.58Z" transform="translate(-647.51 -674.033)" fill="#838b96"/>
      <path id="Caminho_9331" data-name="Caminho 9331" d="M708.5,677.785a3.371,3.371,0,0,0-.551-.042,1.475,1.475,0,0,0-1.494.938v4.648h-1.119v-6.547h1.089l.018.756A1.743,1.743,0,0,1,708,676.66a1.143,1.143,0,0,1,.5.084Z" transform="translate(-659.232 -674.033)" fill="#838b96"/>
    </g>
  </g>
</svg>
