<svg xmlns="http://www.w3.org/2000/svg" width="46.335" height="49.899" viewBox="0 0 46.335 49.899">
  <g id="logo-google-playstore-outline" transform="translate(0)">
    <path id="Caminho_9224" data-name="Caminho 9224" d="M3.375,4.361V48.135a.482.482,0,0,0,.821.342L26.988,26.249,4.2,4.018a.482.482,0,0,0-.821.342Z" transform="translate(-3.375 -1.299)" fill="#1e2b3c"/>
    <path id="Caminho_9225" data-name="Caminho 9225" d="M35.12,18.066,6.541,2.321l-.017-.01a.487.487,0,0,0-.558.786l22.4,21.421Z" transform="translate(-1.95 -2.25)" fill="#1e2b3c"/>
    <path id="Caminho_9226" data-name="Caminho 9226" d="M5.969,41.115a.487.487,0,0,0,.558.786l.017-.01L35.12,26.146l-6.752-6.455Z" transform="translate(-1.95 7.938)" fill="#1e2b3c"/>
    <path id="Caminho_9227" data-name="Caminho 9227" d="M37.307,17.863l-7.981-4.4-7.5,7.181,7.5,7.176,7.981-4.391a3.2,3.2,0,0,0,0-5.57Z" transform="translate(7.401 4.302)" fill="#1e2b3c"/>
  </g>
</svg>
