<svg xmlns="http://www.w3.org/2000/svg" width="60" height="60" viewBox="0 0 60 60">
  <g id="Grupo_4032" data-name="Grupo 4032" transform="translate(-197.692 -529.352)">
    <g id="Grupo_3996" data-name="Grupo 3996" transform="translate(197.692 529.352)" opacity="0.997">
      <g id="Grupo_3992" data-name="Grupo 3992">
        <path id="Caminho_6491" data-name="Caminho 6491" d="M16,0H44A16,16,0,0,1,60,16V44A16,16,0,0,1,44,60H16A16,16,0,0,1,0,44V16A16,16,0,0,1,16,0Z" fill="#007eff"/>
      </g>
      <g id="Grupo_3995" data-name="Grupo 3995" transform="translate(9.417 16.44)">
        <g id="Grupo_3993" data-name="Grupo 3993" transform="translate(22.78)">
          <path id="Caminho_6483" data-name="Caminho 6483" d="M274.3,589.718a6.406,6.406,0,0,0,3.46,4.36c1.6.757,4.051,1.109,7.41,1.109h2.51a4.222,4.222,0,0,0,4.222-4.222h0a.436.436,0,0,0-.436-.436h-5.446c-3.218,0-4.255-.313-4.917-.567a2.883,2.883,0,0,1-1.568-2.178,23.16,23.16,0,0,1-.6-6.138,24.307,24.307,0,0,1,.6-6.262,2.8,2.8,0,0,1,1.568-2.135c.662-.254,1.7-.519,4.917-.519h1.648a4.213,4.213,0,0,0,4.213-4.213h0a.428.428,0,0,0-.427-.428h-.508c-7.64,0-4.729-.019-5.749-.019-3.358,0-5.694.368-7.3,1.124a6.6,6.6,0,0,0-3.592,4.355,41.891,41.891,0,0,0-.008,16.171Z" transform="translate(-273.513 -568.068)" fill="#fff"/>
        </g>
        <g id="Grupo_3994" data-name="Grupo 3994">
          <path id="Caminho_6484" data-name="Caminho 6484" d="M239.968,568.068H220.711a.843.843,0,0,0-.843.843v3.138a.843.843,0,0,0,.843.843h6.122v21.452a.843.843,0,0,0,.843.843h0a4.7,4.7,0,0,0,4.7-4.7V573.307a.415.415,0,0,1,.415-.415h3.645a4.4,4.4,0,0,0,4.371-3.928A.824.824,0,0,0,239.968,568.068Z" transform="translate(-219.868 -568.068)" fill="#fff"/>
        </g>
      </g>
    </g>
  </g>
</svg>
