<svg id="people" xmlns="http://www.w3.org/2000/svg" width="66.527" height="49.896" viewBox="0 0 66.527 49.896">
  <path id="Caminho_9429" data-name="Caminho 9429" d="M62.369,54.4s4.158,0,4.158-4.158-4.158-16.632-20.79-16.632-20.79,12.474-20.79,16.632S29.106,54.4,29.106,54.4ZM29.126,50.47v0Zm.072-.233H62.279l.059-.009.033-.009a12.8,12.8,0,0,0-3.16-7.152c-2.3-2.689-6.329-5.3-13.474-5.3s-11.173,2.619-13.472,5.306a12.768,12.768,0,0,0-3.16,7.152l.091.017Zm33.151.233v0ZM45.737,25.29a8.316,8.316,0,1,0-8.316-8.316A8.316,8.316,0,0,0,45.737,25.29Zm12.474-8.316A12.474,12.474,0,1,1,45.737,4.5,12.474,12.474,0,0,1,58.211,16.974ZM28.84,34.77a24.448,24.448,0,0,0-5.115-1.027q-1.463-.139-2.935-.137C4.158,33.606,0,46.079,0,50.237Q0,54.4,4.158,54.4h17.53a9.3,9.3,0,0,1-.9-4.158,19.074,19.074,0,0,1,4.533-12.075A22.075,22.075,0,0,1,28.84,34.77Zm-8.382,2.994c-6.935.083-10.874,2.661-13.139,5.306a12.724,12.724,0,0,0-3.16,7.168H16.632A22.882,22.882,0,0,1,20.457,37.764ZM6.237,19.053A12.474,12.474,0,1,1,18.711,31.527,12.474,12.474,0,0,1,6.237,19.053Zm12.474-8.316a8.316,8.316,0,1,0,8.316,8.316A8.316,8.316,0,0,0,18.711,10.737Z" transform="translate(0 -4.5)" fill="#1e2b3c" fill-rule="evenodd"/>
</svg>
