<svg xmlns="http://www.w3.org/2000/svg" width="1703.271" height="1182" viewBox="0 0 1703.271 1182">
  <g id="Grupo_4201" data-name="Grupo 4201" transform="translate(0 -1544)">
    <path id="Retângulo_1365" data-name="Retângulo 1365" d="M0,0H1493a150,150,0,0,1,150,150v882a150,150,0,0,1-150,150H0a0,0,0,0,1,0,0V0A0,0,0,0,1,0,0Z" transform="translate(0 1544)" fill="#007eff"/>
    <path id="Caminho_9281" data-name="Caminho 9281" d="M32.145,0H88.4a32.145,32.145,0,0,1,32.145,32.145V88.4A32.145,32.145,0,0,1,88.4,120.543H32.145A32.145,32.145,0,0,1,0,88.4V32.145A32.145,32.145,0,0,1,32.145,0Z" transform="translate(1582.729 1887.729)" fill="#fff"/>
  </g>
</svg>
